<?xml version="1.0" encoding="UTF-8" standalone="no"?>
<!DOCTYPE svg PUBLIC "-//W3C//DTD SVG 1.1//EN" "http://www.w3.org/Graphics/SVG/1.1/DTD/svg11.dtd">
<svg xmlns="http://www.w3.org/2000/svg" xmlns:xlink="http://www.w3.org/1999/xlink" version="1.1">
<metadata/>
<defs>
<font id="dosismedium" horiz-adv-x="1011">
<font-face units-per-em="2048" ascent="1638" descent="-410"/>
<missing-glyph horiz-adv-x="409"/>
<glyph horiz-adv-x="0"/>
<glyph unicode="" horiz-adv-x="681"/>
<glyph horiz-adv-x="0"/>
<glyph horiz-adv-x="0"/>
<glyph unicode=" " horiz-adv-x="409"/>
<glyph unicode="	" horiz-adv-x="409"/>
<glyph unicode=" " horiz-adv-x="409"/>
<glyph unicode="!" horiz-adv-x="428" d="M106 94q0 45 32 77t77 32q43 0 73.5 -32t30.5 -77q0 -43 -30.5 -74.5t-73.5 -31.5q-45 0 -77 31.5t-32 74.5zM121 1430q0 41 25.5 64.5t66.5 23.5q39 0 65.5 -24t26.5 -64q0 -158 -12 -507.5t-12 -508.5q0 -25 -22.5 -40.5t-45.5 -15.5q-29 0 -48.5 14.5t-19.5 41.5 q0 160 -12 509t-12 507z"/>
<glyph unicode="&quot;" horiz-adv-x="571" d="M72 1522q0 23 22.5 37t51 14t52 -14.5t23.5 -36.5l-20 -297q0 -23 -14.5 -38.5t-41.5 -15.5q-53 0 -53 54zM350 1522q0 23 22.5 37t51.5 14t52.5 -14.5t23.5 -36.5l-21 -297q0 -23 -14 -38.5t-41 -15.5q-53 0 -53 54z"/>
<glyph unicode="#" horiz-adv-x="1247" d="M49 563q0 29 14.5 48.5t36.5 19.5h217l50 305h-187q-57 0 -57 65q0 29 14.5 47.5t34.5 18.5h219l60 354q6 39 67 39q35 0 57.5 -18.5t22.5 -52.5l-53 -322h252l57 354q6 39 68 39q35 0 58.5 -18.5t23.5 -52.5l-54 -322h189q23 0 41 -18.5t18 -47.5q0 -27 -16.5 -46 t-36.5 -19h-217l-51 -305h188q23 0 41 -19.5t18 -48.5q0 -27 -16 -45t-37 -18h-219l-61 -387q-4 -18 -26 -31.5t-44 -13.5q-35 0 -59.5 18t-24.5 51l59 363h-247l-64 -385q-4 -20 -27.5 -33.5t-40.5 -13.5q-35 0 -58 18t-23 51l55 363h-185q-57 0 -57 63zM473 631h248 l49 305h-248z"/>
<glyph unicode="$" horiz-adv-x="1036" d="M72 236q0 33 23.5 63.5t51.5 30.5q16 0 45 -24.5t59 -54.5t93.5 -55.5t142.5 -29.5v545l-110 41q-39 14 -99.5 49t-90 70.5t-54 96t-24.5 136.5q0 92 32.5 162.5t89 111.5t120 62.5t136.5 27.5v62q0 16 15.5 29.5t38.5 13.5q20 0 36.5 -13.5t16.5 -29.5v-57 q123 -6 223.5 -42t100.5 -94q0 -29 -20.5 -61.5t-53.5 -32.5q-10 0 -86 36t-164 40v-467q80 -29 132 -56.5t110.5 -75.5t88 -123t29.5 -175q0 -180 -97 -284.5t-263 -127.5v-73q0 -16 -16.5 -29.5t-36.5 -13.5q-23 0 -38.5 13t-15.5 30v67q-176 2 -295.5 80t-119.5 152z M272 1120q0 -96 55.5 -144t168.5 -89v430q-224 -23 -224 -197zM586 170q205 33 205 236q0 106 -53.5 165.5t-151.5 100.5v-502z"/>
<glyph unicode="%" horiz-adv-x="1566" d="M74 948v307q0 125 71.5 183.5t192.5 58.5q119 0 191.5 -58.5t72.5 -183.5v-307q0 -125 -72.5 -183t-191.5 -58q-121 0 -192.5 58t-71.5 183zM197 948q0 -133 141 -133t141 133v307q0 133 -141 133.5t-141 -133.5v-307zM342 0q0 14 6 27l768 1519q14 31 51 31 q27 0 48.5 -19.5t21.5 -48.5q0 -14 -6 -28l-766 -1510q-14 -33 -57 -32q-27 0 -46.5 18t-19.5 43zM965 236v307q0 125 71.5 183t192.5 58q119 0 191.5 -58t72.5 -183v-307q0 -125 -72.5 -183.5t-191.5 -58.5q-121 0 -192.5 58.5t-71.5 183.5zM1087 236q0 -133 141.5 -133.5 t141.5 133.5v307q0 133 -141.5 133t-141.5 -133v-307z"/>
<glyph unicode="&amp;" horiz-adv-x="1265" d="M61 420q0 141 78 246.5t195 162.5q-76 88 -118 168t-42 181q0 164 110.5 259t276.5 95q156 0 254 -73t98 -136q0 -33 -23.5 -56.5t-55.5 -23.5q-20 0 -44 23.5t-46.5 50t-69.5 50.5t-109 24q-100 0 -160.5 -60.5t-60.5 -163.5q0 -63 35 -131.5t65.5 -105.5t96.5 -109 l391 -426q59 131 63 346q2 33 18.5 47.5t57.5 14.5t57.5 -20.5t16.5 -65.5q0 -238 -107 -432l183 -195q14 -16 14 -35q0 -27 -25.5 -49t-54.5 -22q-23 0 -45 22l-156 164q-156 -190 -411 -190q-219 0 -350.5 128t-131.5 312zM236 434q0 -127 88 -214t241 -87q188 0 285 146 l-420 446q-55 -33 -91 -64.5t-69.5 -92t-33.5 -134.5z"/>
<glyph unicode="'" horiz-adv-x="292" d="M72 1522q0 23 22.5 37t51 14t52 -14.5t23.5 -36.5l-20 -297q0 -23 -14.5 -38.5t-41.5 -15.5q-53 0 -53 54z"/>
<glyph unicode="(" horiz-adv-x="634" d="M117 317v869q0 162 118.5 274.5t278.5 112.5q84 0 84 -76q0 -35 -16.5 -56.5t-42.5 -21.5q-113 0 -181.5 -70.5t-68.5 -162.5v-869q0 -113 73.5 -158.5t176.5 -45.5q59 0 59 -78q0 -76 -88 -76q-166 0 -279.5 93t-113.5 265z"/>
<glyph unicode=")" horiz-adv-x="634" d="M37 35q0 78 59 78q102 0 176 46t74 158v869q0 92 -68.5 162.5t-181.5 70.5q-27 0 -43 21.5t-16 56.5q0 76 84 76q160 0 278.5 -112.5t118.5 -274.5v-869q0 -172 -113.5 -265t-281.5 -93q-86 0 -86 76z"/>
<glyph unicode="*" horiz-adv-x="897" d="M57 1200q0 27 19.5 48.5t48.5 21.5q10 0 18 -2l250 -86l-10 256q4 59 66 59q63 0 67 -59l-10 -260l250 90q6 2 20 2q25 0 44.5 -23.5t19.5 -50.5q0 -45 -43 -57l-248 -68l162 -219q10 -14 10 -35q0 -29 -22.5 -48t-51.5 -19q-31 0 -47 24l-151 223l-152 -225 q-12 -23 -43 -22q-25 0 -50.5 18t-25.5 45q0 25 15 41l157 211l-250 74q-43 12 -43 61z"/>
<glyph unicode="+" horiz-adv-x="882" d="M53 492q0 31 16.5 52t43.5 21h254v254q0 25 22.5 43.5t53 18.5t51 -18.5t20.5 -43.5v-254h254q25 0 43 -21.5t18 -52t-18 -51t-43 -20.5h-254v-256q0 -27 -19.5 -43.5t-52 -16.5t-54 16.5t-21.5 43.5v256h-254q-27 0 -43.5 19.5t-16.5 52.5z"/>
<glyph unicode="," horiz-adv-x="360" d="M74 94q0 45 29.5 77t74.5 32q43 0 75 -31t32 -78q0 -37 -88 -248q-12 -29 -45 -28q-23 0 -41.5 13t-18.5 36q0 14 4 22l43 107q-65 26 -65 98z"/>
<glyph unicode="-" horiz-adv-x="845" d="M96 492q0 31 16.5 52t43.5 21h532q25 0 43.5 -21.5t18.5 -52t-18.5 -51t-43.5 -20.5h-532q-60 0 -60 72z"/>
<glyph unicode="." horiz-adv-x="360" d="M76 94q0 45 30.5 77t75.5 32q43 0 74 -32t31 -77q0 -43 -31 -74.5t-74 -31.5q-45 0 -75.5 31.5t-30.5 74.5z"/>
<glyph unicode="/" horiz-adv-x="972" d="M39 0q0 18 6 27l768 1519q14 31 49 31q27 0 49.5 -19.5t22.5 -48.5q0 -14 -8 -28l-764 -1510q-14 -33 -58 -32q-29 0 -47 18t-18 43z"/>
<glyph unicode="0" horiz-adv-x="1107" d="M113 434v617q0 231 119.5 338.5t320.5 107.5t321.5 -107.5t120.5 -338.5v-617q0 -231 -120.5 -338.5t-321.5 -107.5t-320.5 107.5t-119.5 338.5zM285 434q0 -291 268 -291q129 0 199.5 73t70.5 218v617q0 145 -70.5 217.5t-199.5 72.5q-268 0 -268 -290v-617zM473 741.5 q0 34.5 22.5 57t59.5 22.5q35 0 57.5 -22.5t22.5 -57t-22.5 -58.5t-57.5 -24q-37 0 -59.5 24t-22.5 58.5z"/>
<glyph unicode="1" horiz-adv-x="507" d="M18 1178q0 43 37 71l189 224q27 27 53 26q29 0 52.5 -16.5t23.5 -44.5v-1377q0 -29 -25.5 -45t-60.5 -16t-60.5 16.5t-25.5 44.5v1180l-76 -113q-20 -23 -43 -22q-27 0 -45.5 21.5t-18.5 50.5z"/>
<glyph unicode="2" horiz-adv-x="991" d="M66 61v199q0 92 70.5 181t170.5 161l199 148q100 72 171 160.5t71 181.5q0 98 -65 171.5t-185 73.5q-102 0 -167 -57t-65 -166q0 -27 -24.5 -47t-65.5 -20q-78 0 -78 100q0 154 116 252t284 98q180 0 301 -113.5t121 -285.5q0 -102 -50.5 -196.5t-125 -160t-162.5 -131.5 l-164 -116q-74 -51 -124 -113t-50 -121v-104h628q25 0 42.5 -22.5t17.5 -55.5q0 -31 -17.5 -54.5t-42.5 -23.5h-729q-27 0 -52 17t-25 44z"/>
<glyph unicode="3" horiz-adv-x="1017" d="M53 336q0 47 17.5 63.5t62.5 16.5q49 0 68.5 -16.5t19.5 -51.5q0 -78 66.5 -141.5t201.5 -63.5q274 0 275 283v39q0 250 -275 250q-59 0 -59 71.5t59 71.5q119 0 178.5 53.5t59.5 192.5q0 240 -229 239q-131 0 -185.5 -58t-54.5 -138q0 -76 -82 -76q-55 0 -72.5 18.5 t-17.5 69.5t19.5 105.5t62.5 108.5t130 89t204 35q391 0 391 -362q0 -129 -45 -219.5t-121 -124.5q209 -84 209 -326v-39q0 -225 -123 -331.5t-324 -106.5q-211 0 -323.5 107.5t-112.5 240.5z"/>
<glyph unicode="4" horiz-adv-x="942" d="M10 412q0 23 10 39l506 997q27 49 78 49q29 0 56.5 -19.5t27.5 -47.5q0 -14 -8 -29l-449 -893h355v344q0 29 25.5 44t60.5 15t60.5 -15t25.5 -44v-344h108q29 0 45.5 -24.5t16.5 -57.5q0 -31 -18.5 -56.5t-43.5 -25.5h-108v-283q0 -29 -25.5 -45t-60.5 -16t-60.5 16.5 t-25.5 44.5v283h-512q-29 0 -46.5 18.5t-17.5 49.5z"/>
<glyph unicode="5" horiz-adv-x="993" d="M51 342q0 82 86 82t86 -70q0 -98 76 -154.5t193 -56.5q129 0 199.5 72t70.5 215v39q0 139 -70.5 210t-197.5 71h-291q-80 0 -80 67q0 20 4 45l43 574q4 61 45 61h590q27 0 41 -23.5t14 -54t-14.5 -54.5t-40.5 -24h-486l-30 -448h205q201 0 320.5 -102.5t119.5 -321.5v-39 q0 -227 -121 -334.5t-319 -107.5q-205 0 -324 103.5t-119 250.5z"/>
<glyph unicode="6" horiz-adv-x="1077" d="M113 434v617q0 231 121.5 338.5t326.5 107.5t319.5 -106.5t114.5 -249.5q0 -76 -80 -76q-90 0 -90 68q0 94 -76.5 151t-191.5 57q-272 0 -272 -290v-287q98 127 299 127q412 0 411 -414v-43q0 -231 -119.5 -338.5t-320.5 -107.5t-321.5 107.5t-120.5 338.5zM285 426 q0 -291 270 -291q268 0 268 291v43q0 279 -268 279q-270 0 -270 -261v-61z"/>
<glyph unicode="7" horiz-adv-x="962" d="M49 1126v310q0 23 24.5 42t53.5 19h727q27 0 52.5 -19.5t25.5 -41.5v-191q0 -35 -29 -88l-581 -1132q-14 -29 -55.5 -29t-73 23.5t-31.5 58.5q0 18 8 35l590 1112v116h-539v-215q0 -27 -25.5 -44t-60.5 -17t-60.5 17t-25.5 44z"/>
<glyph unicode="8" horiz-adv-x="1046" d="M82 410v24q0 295 229 383q-186 74 -186 320q0 360 399 360q397 0 398 -360q0 -244 -185 -320q227 -90 228 -383v-24q0 -217 -120 -319.5t-320.5 -102.5t-321.5 102.5t-121 319.5zM254 426q0 -291 270 -291q129 0 199 73t70 218v33q0 143 -71 212.5t-198 69.5 q-270 0 -270 -282v-33zM293 1120q0 -231 231.5 -231t231.5 231q0 229 -231.5 229t-231.5 -229z"/>
<glyph unicode="9" horiz-adv-x="1077" d="M82 344q0 76 82 76q90 0 90 -68q0 -94 77 -151.5t189 -57.5q272 0 273 291v287q-96 -127 -299 -127q-412 0 -412 414v43q0 231 120 338.5t320.5 107.5t321.5 -107.5t121 -338.5v-617q0 -231 -122 -338.5t-327 -107.5t-319.5 106.5t-114.5 249.5zM254 1016 q0 -279 270 -279q268 0 269 260v62q0 291 -271 291q-268 0 -268 -291v-43z"/>
<glyph unicode=":" horiz-adv-x="428" d="M109 94q0 45 30.5 77t75.5 32q43 0 73.5 -32t30.5 -77q0 -43 -30.5 -74.5t-73.5 -31.5q-45 0 -75.5 31.5t-30.5 74.5zM109 756q0 45 30.5 76.5t75.5 31.5q43 0 73.5 -31.5t30.5 -76.5q0 -43 -30.5 -75t-73.5 -32q-45 0 -75.5 32t-30.5 75z"/>
<glyph unicode=";" horiz-adv-x="440" d="M113 94q0 45 29.5 77t74.5 32q43 0 75 -31t32 -78q0 -37 -88 -248q-12 -29 -46 -28q-23 0 -41 13t-18 36q0 14 4 22l43 107q-65 26 -65 98zM119 756q0 45 30.5 76.5t75.5 31.5q43 0 74 -31.5t31 -76.5q0 -43 -31 -75t-74 -32q-45 0 -75.5 32t-30.5 75z"/>
<glyph unicode="&lt;" horiz-adv-x="825" d="M45 567q0 43 37 70l547 358q10 8 26 9q29 0 54.5 -25t25.5 -57q0 -35 -26 -50l-461 -305l461 -303q27 -18 26.5 -51t-26 -56.5t-54.5 -23.5q-16 0 -26 8l-547 359q-37 24 -37 67z"/>
<glyph unicode="=" horiz-adv-x="897" d="M129 328q0 31 16.5 52t42.5 21h521q25 0 43 -21.5t18 -51.5q0 -33 -18.5 -53.5t-42.5 -20.5h-521q-59 0 -59 74zM129 743q0 31 16.5 52.5t42.5 21.5h521q25 0 43 -21.5t18 -52.5q0 -33 -18.5 -53t-42.5 -20h-521q-59 -1 -59 73z"/>
<glyph unicode="&gt;" horiz-adv-x="825" d="M90 213q0 33 27 51l461 303l-461 305q-27 14 -27 50q0 33 25.5 57.5t54.5 24.5q16 0 27 -9l546 -358q37 -27 37 -70t-37 -67l-546 -359q-10 -8 -27 -8q-29 0 -54.5 23.5t-25.5 56.5z"/>
<glyph unicode="?" horiz-adv-x="835" d="M45 1337q0 61 96.5 121t235.5 60q186 0 291.5 -101.5t105.5 -257.5q0 -84 -33.5 -162.5t-68.5 -118.5t-94.5 -96.5t-69.5 -68.5q-51 -51 -64.5 -112.5t-13.5 -186.5q0 -55 -70 -56q-66 0 -65 76q0 248 98 346q14 14 54 49t66 62t54.5 65.5t44 86t15.5 102.5 q0 113 -67.5 175t-190.5 62q-63 0 -109.5 -17t-66 -38.5t-41 -39t-41.5 -17.5q-25 0 -45.5 18t-20.5 49zM254 94q0 45 31.5 77t74.5 32q45 0 76 -32t31 -77q0 -43 -30.5 -74.5t-76.5 -31.5q-43 0 -74.5 31.5t-31.5 74.5z"/>
<glyph unicode="@" horiz-adv-x="1478" d="M100 438q0 315 165 513t495 198q309 0 477 -174t168 -492q0 -186 -64.5 -308t-199.5 -122q-78 0 -134.5 40t-68.5 97q-57 -61 -113.5 -90.5t-138.5 -29.5q-113 0 -185.5 55t-72.5 172q0 133 103.5 185.5t302.5 52.5h81v36q0 164 -192 164q-76 0 -133.5 -25.5t-61.5 -25.5 q-20 0 -35.5 24.5t-15.5 45.5q0 45 85 76.5t183 31.5q137 0 220.5 -68.5t83.5 -195.5v-342q6 -47 34.5 -73.5t67.5 -26.5q133 0 133 307q0 276 -131 423.5t-395 147.5q-147 0 -255 -48t-167.5 -133t-87 -187.5t-27.5 -225.5q0 -115 24.5 -210t77 -176t147.5 -126t224 -45 q104 0 192.5 31t92.5 31q20 0 34.5 -18.5t14.5 -35.5q0 -47 -115.5 -82.5t-236.5 -35.5q-115 0 -216.5 41t-183 119.5t-129 208.5t-47.5 296zM571 297q0 -123 138 -123q90 0 150.5 53.5t60.5 114.5v100h-74q-135 0 -205 -30.5t-70 -114.5z"/>
<glyph unicode="A" horiz-adv-x="1126" d="M35 72q0 4 4 16l418 1362q18 59 106 59t107 -59l417 -1362q0 -4 1.5 -8t1.5 -6q0 -29 -34 -51.5t-73 -22.5q-49 0 -61 39l-91 305h-538l-90 -305q-12 -39 -64 -39q-37 0 -70.5 20.5t-33.5 51.5zM332 485h459l-228 770z"/>
<glyph unicode="B" horiz-adv-x="1116" d="M145 59v1377q0 29 24 45t54 16h352q193 0 304.5 -75.5t111.5 -274.5q0 -127 -46 -214t-128 -122q104 -41 157.5 -121t53.5 -227v-37q0 -221 -110.5 -323.5t-294.5 -102.5h-400q-35 0 -56.5 17t-21.5 42zM317 156h277q262 0 262 280v35q0 141 -66.5 204.5t-195.5 63.5 h-277v-583zM317 883h256q127 0 186.5 57t59.5 182q0 219 -252 219h-250v-458z"/>
<glyph unicode="C" horiz-adv-x="1087" d="M131 434v617q0 229 122 337.5t318 108.5q201 0 322 -101.5t121 -254.5q0 -55 -20.5 -74.5t-65.5 -19.5q-82 0 -86 59q-12 235 -265 235h-2q-272 0 -272 -290v-617q0 -291 279 -291q80 0 133 22.5t78.5 65.5t34 74t14.5 82q6 59 86 59q45 0 65.5 -20t20.5 -76 q0 -156 -122 -259t-323 -103q-195 0 -316.5 108.5t-121.5 337.5z"/>
<glyph unicode="D" horiz-adv-x="1159" d="M145 59v1379q0 25 21.5 42t56.5 17h363q201 0 321.5 -107.5t120.5 -338.5v-605q0 -231 -121 -338.5t-321 -107.5h-363q-35 0 -56.5 17t-21.5 42zM317 156h269q129 0 199.5 72.5t70.5 217.5v605q0 145 -70.5 217.5t-199.5 72.5h-269v-1185z"/>
<glyph unicode="E" horiz-adv-x="1052" d="M145 61v1375q0 29 24 45t54 16h729q29 0 44.5 -22.5t15.5 -53.5q0 -33 -16.5 -56.5t-43.5 -23.5h-635v-520h320q27 0 43 -21.5t16 -51.5q0 -27 -15 -48.5t-44 -21.5h-320v-522h635q27 0 43.5 -23.5t16.5 -56.5q0 -31 -15.5 -53.5t-44.5 -22.5h-729q-31 0 -54.5 16 t-23.5 45z"/>
<glyph unicode="F" horiz-adv-x="1017" d="M145 59v1377q0 29 24 45t54 16h721q29 0 44.5 -22.5t15.5 -53.5q0 -35 -15.5 -57.5t-44.5 -22.5h-627v-520h320q29 0 44 -21.5t15 -51.5q0 -27 -15 -48.5t-44 -21.5h-320v-619q0 -29 -25.5 -44t-60 -15t-60.5 15t-26 44z"/>
<glyph unicode="G" horiz-adv-x="1122" d="M131 434v617q0 231 120 338.5t316 107.5q201 0 324 -101.5t123 -265.5q0 -47 -21.5 -65t-64.5 -18q-84 0 -86 59q-27 235 -269 235h-2q-268 0 -268 -290v-617q0 -291 268 -291q129 0 200 73t71 218v209h-244q-29 0 -44 21.5t-15 50t16 50t43 21.5h356q29 0 44.5 -18 t15.5 -45v-289q0 -231 -121 -338.5t-321.5 -107.5t-320.5 107.5t-120 338.5z"/>
<glyph unicode="H" horiz-adv-x="1189" d="M145 61v1377q0 29 26 44t60.5 15t60 -15.5t25.5 -43.5v-590h555v590q0 29 26 44t60.5 15t60 -15.5t25.5 -43.5v-1377q0 -29 -25.5 -45t-60 -16t-60.5 16.5t-26 44.5v644h-555v-644q0 -29 -25.5 -45t-60 -16t-60.5 16t-26 45z"/>
<glyph unicode="I" horiz-adv-x="462" d="M145 61v1377q0 29 26 44t60.5 15t60 -15.5t25.5 -43.5v-1377q0 -29 -25.5 -45t-60 -16t-60.5 16t-26 45z"/>
<glyph unicode="J" horiz-adv-x="1062" d="M41 362q0 47 21.5 65.5t64.5 18.5q86 0 86 -59q0 -109 70.5 -176.5t197.5 -67.5q270 0 271 291v907h-267q-29 0 -44 22.5t-15 57.5q0 76 59 76h361q31 0 54.5 -16.5t23.5 -44.5v-1002q0 -231 -120 -338.5t-317 -107.5q-201 0 -323.5 103t-122.5 271z"/>
<glyph unicode="K" horiz-adv-x="1083" d="M145 61v1377q0 29 26 44t60.5 15t60 -15.5t25.5 -43.5v-678l549 713q18 25 51 24.5t66 -29t33 -59.5q0 -20 -15 -37l-417 -522l487 -737q10 -16 10 -31q0 -33 -31.5 -59.5t-68.5 -26.5q-41 0 -63 35l-449 674l-152 -191v-453q0 -29 -25.5 -45t-60 -16t-60.5 16t-26 45z "/>
<glyph unicode="L" horiz-adv-x="958" d="M145 61v1377q0 29 26 44t60.5 15t60 -15.5t25.5 -43.5v-1282h560q27 0 41 -23.5t14 -54.5t-14.5 -54.5t-40.5 -23.5h-654q-31 0 -54.5 16t-23.5 45z"/>
<glyph unicode="M" horiz-adv-x="1382" d="M145 61v1352q0 84 86 84q82 0 138 -108l321 -617l324 617q58 108 136 108h1q86 0 86 -84v-1352q0 -29 -25.5 -45t-60.5 -16t-60.5 16.5t-25.5 44.5v1076l-309 -582q-25 -47 -68 -47q-39 0 -63 47l-308 590v-1084q0 -29 -25.5 -45t-60 -16t-60.5 16t-26 45z"/>
<glyph unicode="N" horiz-adv-x="1189" d="M145 61v1377q0 59 86 59q43 0 73 -25.5t58 -82.5l510 -998v1047q0 29 26 44t60.5 15t60 -15.5t25.5 -43.5v-1377q0 -29 -25.5 -45t-60.5 -16q-66 0 -108 78l-533 1030v-1047q0 -29 -25.5 -45t-60 -16t-60.5 16t-26 45z"/>
<glyph unicode="O" horiz-adv-x="1144" d="M131 434v617q0 231 120 338.5t320.5 107.5t321.5 -107.5t121 -338.5v-617q0 -231 -121 -338.5t-321.5 -107.5t-320.5 107.5t-120 338.5zM303 434q0 -291 268 -291q129 0 200 73t71 218v617q0 145 -71 217.5t-200 72.5q-268 0 -268 -290v-617z"/>
<glyph unicode="P" horiz-adv-x="1095" d="M145 61v1377q0 25 19.5 42t50.5 17h387q197 0 315.5 -106.5t118.5 -335.5v-19q0 -229 -120.5 -336.5t-321.5 -107.5h-277v-531q0 -29 -25.5 -45t-60 -16t-60.5 16t-26 45zM317 735h277q129 0 199.5 73t70.5 218v25q0 145 -70.5 217.5t-199.5 72.5h-277v-606z"/>
<glyph unicode="Q" horiz-adv-x="1144" d="M131 434v617q0 231 120 338.5t320.5 107.5t321.5 -107.5t121 -338.5v-617q0 -213 -102.5 -321.5t-276.5 -120.5v-154q0 -29 -18.5 -45t-43 -16t-43 16.5t-18.5 44.5v154q-176 12 -278.5 119.5t-102.5 322.5zM303 434q0 -250 209 -282v139q0 29 18.5 44t43 15t43 -15.5 t18.5 -43.5v-137q207 29 207 280v617q0 145 -71 217.5t-200 72.5q-268 0 -268 -290v-617z"/>
<glyph unicode="R" horiz-adv-x="1112" d="M145 61v1377q0 25 17.5 41t44.5 18h375q205 0 329.5 -95t124.5 -315q0 -338 -305 -399l303 -575q8 -14 8 -29q0 -33 -32.5 -60.5t-69.5 -27.5q-43 0 -78 67l-309 601h-236v-603q0 -29 -25.5 -45t-60 -16t-60.5 16t-26 45zM317 807h265q282 0 282 266q0 268 -282 268h-265 v-534z"/>
<glyph unicode="S" horiz-adv-x="1028" d="M68 215q0 33 23.5 63.5t51.5 30.5q18 0 47 -25.5t60 -57t96.5 -57.5t147.5 -26q133 0 208.5 64.5t75.5 189.5q0 113 -69.5 183.5t-168 107.5t-197.5 79t-169 129t-70 224q0 106 41 185t110 119t142.5 58.5t157.5 18.5q127 0 242.5 -35.5t115.5 -99.5q0 -29 -20.5 -61.5 t-52.5 -32.5q-8 0 -94.5 39t-190.5 39q-125 0 -202 -51.5t-77 -161.5q0 -94 70 -152.5t169 -93.5t197.5 -80t168 -144.5t69.5 -252.5q0 -213 -122.5 -321.5t-325.5 -108.5q-182 0 -308 77.5t-126 153.5z"/>
<glyph unicode="T" d="M27 1419q0 31 16 54.5t45 23.5h834q29 0 45 -23.5t16 -54.5q0 -33 -16.5 -57.5t-44.5 -24.5h-330v-1276q0 -29 -25.5 -45t-60.5 -16t-60.5 16.5t-25.5 44.5v1276h-332q-29 0 -45 23.5t-16 58.5z"/>
<glyph unicode="U" horiz-adv-x="1173" d="M139 434v1004q0 29 25.5 44t60.5 15t60.5 -15.5t25.5 -43.5v-1004q0 -291 275 -291q133 0 204.5 73t71.5 218v1004q0 59 86 59q35 0 60.5 -15.5t25.5 -43.5v-1004q0 -231 -123 -338.5t-325.5 -107.5t-324.5 107.5t-122 338.5z"/>
<glyph unicode="V" horiz-adv-x="1124" d="M35 1425q0 31 33.5 51.5t70.5 20.5q51 0 64 -39l360 -1216l359 1216q14 39 61 39q39 0 73 -22.5t34 -51.5q0 -2 -1.5 -6t-1.5 -8l-415 -1362q-23 -59 -109 -59t-104 59l-420 1362q-4 12 -4 16z"/>
<glyph unicode="W" horiz-adv-x="1665" d="M35 1427q0 29 33.5 49.5t70.5 20.5q51 0 64 -39l346 -1216l194 749q14 53 91 53q72 0 86 -53l196 -749l344 1216q12 39 66 39q37 0 69.5 -20.5t32.5 -49.5q0 -12 -2 -18l-403 -1362q-18 -59 -107 -59q-92 0 -106 59l-176 676l-179 -676q-16 -59 -104 -59t-107 59 l-405 1362q-4 12 -4 18z"/>
<glyph unicode="X" horiz-adv-x="1034" d="M41 80q0 18 12 37l353 633l-345 628q-14 23 -14 45q0 35 32 56.5t73 21.5q43 0 75 -65l289 -545l291 545q33 65 75 65h1q41 0 72.5 -21.5t31.5 -56.5q0 -23 -14 -45l-346 -628l354 -633q12 -18 12 -37q0 -33 -35.5 -58.5t-72.5 -25.5q-35 0 -66 57l-303 559l-301 -559 q-31 -57 -65 -57q-37 0 -73 25.5t-36 58.5z"/>
<glyph unicode="Y" horiz-adv-x="1116" d="M35 1425q0 31 33.5 51.5t68.5 20.5q37 0 62 -45l360 -702l359 702q25 45 61.5 45t69 -20.5t32.5 -51.5q0 -16 -8 -34l-424 -791q-4 -6 -4 -20v-519q0 -29 -25.5 -45t-60.5 -16t-60.5 16.5t-25.5 44.5v519q0 10 -6 20l-424 791q-8 18 -8 34z"/>
<glyph unicode="Z" horiz-adv-x="1013" d="M43 55q0 27 16 60l662 1226h-590q-29 0 -44 22.5t-15 55.5t15 55.5t44 22.5h754q59 0 59 -51q0 -29 -20 -66l-660 -1224h647q27 0 44.5 -23.5t17.5 -54.5t-17.5 -54.5t-44.5 -23.5h-809q-59 0 -59 55z"/>
<glyph unicode="[" horiz-adv-x="643" d="M133 16v1497q0 27 23.5 43.5t54.5 16.5h336q27 0 43 -22.5t16 -53.5q0 -33 -16.5 -55.5t-42.5 -22.5h-242v-1308h242q27 0 43 -22.5t16 -55.5q0 -31 -16.5 -53.5t-42.5 -22.5h-336q-31 0 -54.5 16t-23.5 43z"/>
<glyph unicode="\" horiz-adv-x="718" d="M43 1481q0 27 20.5 45t49.5 18q41 0 53 -35l506 -1429q4 -6 4 -19q0 -25 -20.5 -43t-47.5 -18q-45 0 -57 41l-504 1417q-4 9 -4 23z"/>
<glyph unicode="]" horiz-adv-x="643" d="M37 33q0 33 16.5 55.5t42.5 22.5h242v1308h-242q-27 0 -43 22.5t-16 55.5q0 31 16.5 53.5t42.5 22.5h336q31 0 54.5 -16.5t23.5 -43.5v-1497q0 -27 -23.5 -43t-54.5 -16h-336q-27 0 -43 22.5t-16 53.5z"/>
<glyph unicode="^" horiz-adv-x="559" d="M0 1264q0 39 31 53l213 115q20 10 35 10q18 0 34 -10l213 -113q33 -18 33 -57q0 -23 -13.5 -40.5t-33.5 -17.5q-4 0 -12 2q-4 4 -8 4l-213 115l-213 -115q-8 -6 -19 -6q-18 0 -32.5 18.5t-14.5 41.5z"/>
<glyph unicode="_" horiz-adv-x="675" d="M-49 -74q0 31 16.5 52.5t42.5 21.5h656q25 0 43 -21.5t18 -52t-18.5 -51t-42.5 -20.5h-656q-59 -1 -59 71z"/>
<glyph unicode="`" horiz-adv-x="344" d="M0 1372q0 27 16.5 48.5t40.5 21.5q8 0 21 -4l239 -127q27 -12 27 -45q0 -27 -18.5 -48.5t-42.5 -21.5q-6 0 -23 8l-231 119q-29 14 -29 49z"/>
<glyph unicode="a" horiz-adv-x="917" d="M57 256q0 160 123 222.5t357 62.5h98v43q0 102 -56.5 178t-168.5 76q-86 0 -151.5 -30t-72.5 -30q-29 0 -46 28t-17 58q0 47 93 83t198 36q201 0 296 -113.5t95 -283.5v-525q0 -27 -23.5 -44t-60.5 -17q-33 0 -55.5 17.5t-22.5 43.5v82q-138 -159 -307 -159h-2 q-123 0 -200 69.5t-77 202.5zM229 274q0 -76 43 -114.5t115 -38.5q86 0 167 68.5t81 140.5v106h-72q-59 0 -102 -3t-89 -12t-76 -26.5t-48.5 -47.5t-18.5 -73z"/>
<glyph unicode="b" d="M123 61v1436q0 27 23.5 43t60.5 16t61.5 -16t24.5 -43v-670q37 66 106.5 111t161.5 45q150 0 258.5 -115.5t108.5 -277.5v-209q0 -156 -108.5 -276.5t-252.5 -120.5q-92 0 -170 47t-112 112v-82q0 -25 -23.5 -43t-54.5 -18q-35 0 -59.5 18t-24.5 43zM293 326 q0 -51 71.5 -120t161.5 -69q92 0 162 75t70 169v209q0 92 -70 165.5t-164 73.5q-92 0 -161.5 -66.5t-69.5 -172.5v-264z"/>
<glyph unicode="c" horiz-adv-x="854" d="M86 381v205q0 176 103.5 286.5t304.5 110.5q127 0 214 -45t87 -96q0 -29 -21.5 -56.5t-50.5 -27.5q-8 0 -70.5 35.5t-146.5 35.5q-123 0 -186.5 -63.5t-63.5 -179.5v-205q0 -244 252 -244q86 0 149.5 37t73.5 37q33 0 54.5 -26.5t21.5 -55.5q0 -51 -90 -98t-221 -47 q-203 0 -306.5 109.5t-103.5 287.5z"/>
<glyph unicode="d" d="M84 381v209q0 162 108.5 277.5t258.5 115.5q92 0 161.5 -45t106.5 -111v670q0 27 24.5 43t61.5 16t60.5 -16t23.5 -43v-1436q0 -25 -24.5 -43t-59.5 -18q-31 0 -54.5 18.5t-23.5 42.5v82q-35 -66 -112.5 -112.5t-170.5 -46.5q-143 0 -251.5 120.5t-108.5 276.5zM254 381 q0 -94 69.5 -169t161.5 -75q90 0 162 68.5t72 120.5v264q0 106 -69.5 172.5t-162.5 66.5q-94 0 -163.5 -73.5t-69.5 -165.5v-209z"/>
<glyph unicode="e" horiz-adv-x="952" d="M84 381v215q0 158 120 272.5t288 114.5q160 0 276.5 -107.5t116.5 -269.5q0 -59 -14.5 -95t-44 -51.5t-55.5 -19.5t-69 -4h-448v-61q0 -113 81 -180.5t210 -67.5q68 0 118 20.5t80.5 40t49.5 19.5q29 0 49 -25.5t20 -52.5q0 -47 -93 -96t-230 -49q-201 0 -328 109.5 t-127 287.5zM254 551h379q53 0 71.5 13.5t18.5 51.5q0 92 -67.5 162t-166.5 70q-96 0 -165.5 -64.5t-69.5 -158.5v-74z"/>
<glyph unicode="f" horiz-adv-x="645" d="M123 59v1115q0 160 107.5 271t254.5 111h72q33 0 51.5 -22.5t18.5 -53t-18.5 -52t-51.5 -21.5h-43q-94 0 -156.5 -63.5t-64.5 -155.5v-217h280q25 0 39.5 -20.5t14.5 -47t-14.5 -46t-39.5 -19.5h-280v-779q0 -25 -25.5 -42t-62.5 -17q-35 0 -58.5 16t-23.5 43z"/>
<glyph unicode="g" horiz-adv-x="935" d="M45 -193q0 150 166 224q-104 39 -105 137q0 94 103 151q-117 94 -117 259v67q0 150 100.5 244t264.5 94q139 0 239 -80q61 133 140 133q33 0 53 -19.5t20 -43.5q0 -31 -35 -47q-70 -18 -110 -86q63 -76 63 -195v-67q0 -147 -104.5 -243.5t-265.5 -96.5q-84 0 -152 30 q-51 -31 -51 -69.5t47 -60t116.5 -27t151.5 -19.5t152 -36.5t117 -80t47 -145.5q0 -145 -116 -222t-300 -77t-304 74.5t-120 201.5zM207 -174q0 -80 70.5 -128t189.5 -48q115 0 183.5 48t68.5 128q0 33 -11.5 57.5t-36 41t-49 27.5t-63.5 18t-64.5 10.5t-67.5 7.5t-58 6 q-162 -53 -162 -168zM258 580q0 -98 54.5 -162t148.5 -64q90 0 145.5 62.5t55.5 161.5v67q0 94 -55.5 157.5t-147.5 63.5q-94 0 -147.5 -62.5t-53.5 -158.5v-65z"/>
<glyph unicode="h" horiz-adv-x="1032" d="M123 61v1436q0 27 23.5 43t60.5 16t61.5 -16t24.5 -43v-670q35 66 103.5 111t162.5 45q145 0 253 -115.5t108 -277.5v-529q0 -29 -26 -45t-60 -16q-33 0 -58.5 16.5t-25.5 44.5v529q0 92 -70 165.5t-164 73.5q-88 0 -155.5 -66.5t-67.5 -172.5v-529q0 -23 -25.5 -42 t-60.5 -19t-59.5 18t-24.5 43z"/>
<glyph unicode="i" horiz-adv-x="411" d="M98 1335q0 39 31 68t76 29q43 0 73.5 -29t30.5 -68t-30.5 -68.5t-73.5 -29.5t-75 29.5t-32 68.5zM121 61v850q0 27 24.5 43.5t59.5 16.5q37 0 61.5 -16.5t24.5 -43.5v-850q0 -23 -25.5 -42t-60.5 -19t-59.5 18t-24.5 43z"/>
<glyph unicode="j" horiz-adv-x="415" d="M-76 -395q0 33 20.5 54.5t49.5 21.5q80 0 104.5 59t24.5 178v993q0 27 23.5 43.5t60.5 16.5t61.5 -16.5t24.5 -43.5v-993q0 -178 -69.5 -282.5t-211.5 -104.5q-88 0 -88 74zM100 1335q0 39 31 68t76 29q43 0 73.5 -29t30.5 -68t-30.5 -68.5t-73.5 -29.5t-75 29.5 t-32 68.5z"/>
<glyph unicode="k" horiz-adv-x="956" d="M123 61v1436q0 27 23.5 43t60.5 16t61.5 -16t24.5 -43v-958l467 422q18 14 37 14q31 0 58.5 -24.5t27.5 -55.5q0 -25 -19 -41l-284 -252l340 -493q10 -16 10 -31q0 -31 -31 -58.5t-63 -27.5q-29 0 -48 26l-325 478l-170 -152v-283q0 -23 -25.5 -42t-60.5 -19t-59.5 18 t-24.5 43z"/>
<glyph unicode="l" horiz-adv-x="448" d="M139 61v1436q0 27 23.5 43t60.5 16t61.5 -16t24.5 -43v-1436q0 -23 -25.5 -42t-60.5 -19t-59.5 18t-24.5 43z"/>
<glyph unicode="m" horiz-adv-x="1609" d="M121 61v850q0 27 23.5 43.5t60.5 16.5q33 0 55.5 -16.5t22.5 -43.5v-84q37 68 107.5 112t164.5 44t169 -56.5t112 -148.5q51 100 135 152.5t176 52.5q143 0 246.5 -106.5t103.5 -286.5v-529q0 -23 -25.5 -42t-60.5 -19q-33 0 -58.5 19.5t-25.5 41.5v529q0 111 -64.5 175 t-150.5 64t-152.5 -65.5t-66.5 -167.5v-537q0 -29 -25.5 -44t-60.5 -15q-33 0 -58.5 15.5t-25.5 43.5v535q0 102 -62.5 168.5t-150.5 66.5t-153.5 -65.5t-65.5 -173.5v-529q0 -23 -25.5 -42t-60.5 -19t-59.5 18t-24.5 43z"/>
<glyph unicode="n" horiz-adv-x="1030" d="M121 61v850q0 27 23.5 43.5t60.5 16.5q31 0 54.5 -17.5t23.5 -42.5v-84q33 66 105.5 111t168.5 45q145 0 253 -115.5t108 -277.5v-529q0 -29 -26 -45t-61 -16q-33 0 -58 16.5t-25 44.5v529q0 92 -70 165.5t-164 73.5q-88 0 -155.5 -66.5t-67.5 -172.5v-529 q0 -23 -26.5 -42t-59.5 -19q-35 0 -59.5 18t-24.5 43z"/>
<glyph unicode="o" horiz-adv-x="976" d="M84 381v209q0 158 120 275.5t283.5 117.5t284.5 -116.5t121 -276.5v-209q0 -156 -122 -276.5t-283.5 -120.5t-282.5 119.5t-121 277.5zM254 381q0 -96 69.5 -170t163.5 -74q96 0 166 75t70 169v209q0 92 -69.5 165.5t-166 73.5t-165 -73.5t-68.5 -165.5v-209z"/>
<glyph unicode="p" d="M123 -408v1319q0 27 23.5 43.5t58.5 16.5t57.5 -16.5t22.5 -43.5v-84q37 66 108.5 111t165.5 45q154 0 261.5 -115.5t107.5 -277.5v-209q0 -156 -108.5 -276.5t-252.5 -120.5q-90 0 -164.5 46t-109.5 113v-551q0 -23 -25.5 -42t-60.5 -19t-59.5 18t-24.5 43zM293 326 q0 -51 70.5 -120t160.5 -69q92 0 163 75t71 169v209q0 92 -71 165.5t-167 73.5q-90 0 -158.5 -66.5t-68.5 -172.5v-264z"/>
<glyph unicode="q" d="M84 381v209q0 162 107.5 277.5t261.5 115.5q94 0 165.5 -45t108.5 -111v84q0 27 22.5 43.5t57.5 16.5t58.5 -16.5t23.5 -43.5v-1319q0 -25 -24.5 -43t-59.5 -18t-60.5 19.5t-25.5 41.5v551q-35 -68 -109.5 -113.5t-165.5 -45.5q-143 0 -251.5 120.5t-108.5 276.5z M254 381q0 -94 70.5 -169t162.5 -75q90 0 161 68.5t71 120.5v264q0 106 -68.5 172.5t-158.5 66.5q-96 0 -167 -73.5t-71 -165.5v-209z"/>
<glyph unicode="r" horiz-adv-x="704" d="M121 61v850q0 27 23.5 43.5t60.5 16.5q33 0 55.5 -16.5t22.5 -43.5v-96q37 70 108.5 119t159.5 49h70q27 0 46 -23.5t19 -54.5t-19.5 -53.5t-45.5 -22.5h-70q-104 0 -182 -83.5t-78 -217.5v-467q0 -23 -25.5 -42t-60.5 -19t-59.5 18t-24.5 43z"/>
<glyph unicode="s" horiz-adv-x="802" d="M61 139q0 27 17.5 52.5t42.5 25.5q16 0 47 -24.5t88 -48t135 -23.5q102 0 148.5 37t46.5 92q0 68 -51.5 107.5t-125 60t-147.5 45t-125 82t-51 151.5q0 117 83 202t253 85q109 0 199 -34t90 -77q0 -25 -19.5 -55.5t-48.5 -30.5q-8 0 -78.5 30t-140.5 30q-94 0 -140 -44 t-46 -100q0 -57 51 -89.5t125.5 -51t148.5 -45.5t125 -91.5t51 -166.5q0 -127 -90 -200.5t-252 -73.5q-139 0 -237.5 50t-98.5 105z"/>
<glyph unicode="t" horiz-adv-x="634" d="M117 309v1055q0 25 26.5 42t57.5 17q33 0 59.5 -17t26.5 -42v-393h258q23 0 37 -20.5t14 -47t-14.5 -46t-36.5 -19.5h-258v-529q0 -88 37.5 -123.5t132.5 -35.5h63q35 0 54.5 -22t19.5 -52.5t-20.5 -53t-53.5 -22.5h-63q-340 0 -340 309z"/>
<glyph unicode="u" horiz-adv-x="1034" d="M113 377v532q0 25 25.5 43.5t60.5 18.5q33 0 58.5 -19.5t25.5 -42.5v-532q0 -92 69.5 -166t165.5 -74q94 0 164 73t70 167v534q0 23 25.5 41.5t60.5 18.5q37 0 60.5 -17.5t23.5 -42.5v-534q0 -158 -120 -275.5t-284 -117.5q-166 0 -285.5 117.5t-119.5 275.5z"/>
<glyph unicode="v" horiz-adv-x="894" d="M25 901q0 29 35.5 51.5t72.5 22.5q43 0 55 -33l261 -696l256 688q16 41 55 41q33 0 71.5 -22.5t38.5 -51.5q0 -16 -8 -33l-336 -850q-16 -36 -74 -36h-3q-63 0 -80 36l-336 850q-8 25 -8 33z"/>
<glyph unicode="w" horiz-adv-x="1382" d="M29 901q0 31 33.5 52.5t70.5 21.5q43 0 55 -33l248 -688l193 620q14 41 63 41q51 0 66 -41l188 -626l250 694q10 33 53 33q37 0 72 -21.5t35 -52.5q0 -16 -8 -33l-320 -850q-14 -36 -64 -36h-3q-55 0 -70 36l-199 603l-194 -596q-14 -43 -74 -43q-53 0 -70 43l-317 843 q-8 25 -8 33z"/>
<glyph unicode="x" horiz-adv-x="872" d="M49 68q0 18 10 34l265 390l-254 372q-12 16 -13 33q0 31 37 58.5t72 27.5q29 0 45 -25l225 -352l230 352q14 25 45 25q33 0 69.5 -28.5t36.5 -57.5q0 -16 -10 -33l-258 -372l266 -390q10 -14 10 -34q0 -27 -34.5 -55.5t-69.5 -28.5q-33 0 -47 24l-238 363l-235 -363 q-16 -25 -47 -24.5t-68 28t-37 56.5z"/>
<glyph unicode="y" horiz-adv-x="894" d="M25 901q0 33 36.5 57.5t73.5 24.5q43 0 55 -35l271 -712l244 712q14 35 53 35q35 0 72.5 -24.5t37.5 -59.5q0 -10 -6 -20l-311 -834l-39 -102q-10 -29 -41 -98.5t-51.5 -100.5t-57 -81t-71.5 -72.5t-83 -41t-102 -18.5q-79 0 -79 74q0 76 49 76q92 0 179 103t118 265 l-340 830q-8 12 -8 22z"/>
<glyph unicode="z" horiz-adv-x="841" d="M47 63q0 33 27 68l473 694h-424q-23 0 -40 21.5t-17 50.5q0 31 16 52.5t41 21.5h586q25 0 43 -18.5t18 -47.5q0 -35 -25 -65l-475 -695h469q23 0 40.5 -21.5t17.5 -52t-16.5 -51t-41.5 -20.5h-628q-31 0 -47.5 19t-16.5 44z"/>
<glyph unicode="{" horiz-adv-x="665" d="M57 788.5q0 32.5 19.5 48t42 18.5t42 13.5t19.5 34.5q0 16 -19.5 154.5t-19.5 173.5q0 135 120 238.5t276 103.5q47 0 69.5 -22.5t22.5 -53.5q0 -29 -16.5 -51.5t-43.5 -22.5q-100 0 -178 -61.5t-78 -151.5q0 -31 19.5 -167t19.5 -156q0 -35 -25.5 -64.5t-47.5 -36.5 q23 -6 48 -33.5t25 -64.5q0 -23 -19.5 -193.5t-19.5 -203.5q0 -94 84 -138t172 -44q31 0 45.5 -24t14.5 -50q0 -76 -94 -76q-160 0 -277 90t-117 227q0 39 19.5 209t19.5 189q0 25 -19.5 35t-42 12t-42 18.5t-19.5 49z"/>
<glyph unicode="|" horiz-adv-x="436" d="M133 16v1497q0 27 24.5 43.5t61.5 16.5q35 0 60.5 -17.5t25.5 -42.5v-1497q0 -23 -26.5 -41t-59.5 -18q-37 0 -61.5 17t-24.5 42z"/>
<glyph unicode="}" horiz-adv-x="665" d="M37 35q0 74 59 74q88 0 172 44t84 138q0 33 -19.5 204t-19.5 193q0 37 24.5 64.5t49.5 33.5q-23 6 -48.5 36t-25.5 65q0 20 19.5 156.5t19.5 166.5q0 90 -78.5 151.5t-177.5 61.5q-27 0 -43 22.5t-16 51.5q0 31 22.5 53.5t69.5 22.5q156 0 275.5 -103.5t119.5 -238.5 q0 -35 -19.5 -173t-19.5 -155q0 -25 19.5 -35t42 -13t42 -18.5t19.5 -48t-19.5 -49t-42 -18.5t-42 -12.5t-19.5 -34.5q0 -18 19.5 -188.5t19.5 -209.5q0 -137 -116.5 -227t-276.5 -90q-94 0 -94 76z"/>
<glyph unicode="~" horiz-adv-x="823" d="M84 500q0 59 60.5 92t117.5 33q55 0 139 -34t138 -34q51 0 94 27.5t55 27.5q23 0 36 -19.5t13 -37.5q0 -63 -57 -93t-115 -30q-61 0 -143 34t-135 34q-51 0 -97.5 -30t-58.5 -30q-23 0 -35 20t-12 40z"/>
<glyph unicode="­" horiz-adv-x="845" d="M96 492q0 31 16.5 52t43.5 21h532q25 0 43.5 -21.5t18.5 -52t-18.5 -51t-43.5 -20.5h-532q-60 0 -60 72z"/>
<glyph unicode="Ç" horiz-adv-x="1087" d="M131 434v617q0 229 122 337.5t318 108.5q201 0 322 -101.5t121 -254.5q0 -55 -20.5 -74.5t-65.5 -19.5q-82 0 -86 59q-12 236 -267 235q-272 0 -272 -290v-617q0 -291 279 -291q80 0 133 22.5t78.5 65.5t34 74t14.5 82q6 59 86 59q45 0 65.5 -20t20.5 -76 q0 -141 -101.5 -240.5t-271.5 -117.5l-29 -111q98 -2 147.5 -45t49.5 -104q0 -66 -48 -116t-143 -50q-55 0 -109 14t-54 41q0 14 10 35.5t27 21.5q4 0 39.5 -14t74.5 -14q106 0 107 76q0 74 -121 84l-88 6l45 172q-188 6 -303 113.5t-115 332.5z"/>
<glyph unicode="Ö" horiz-adv-x="1144" d="M131 434v617q0 231 120 338.5t320.5 107.5t321.5 -107.5t121 -338.5v-617q0 -231 -121 -338.5t-321.5 -107.5t-320.5 107.5t-120 338.5zM303 434q0 -291 268 -291q129 0 200 73t71 218v617q0 145 -71 217.5t-200 72.5q-268 0 -268 -290v-617zM356 1804q0 35 25 59.5 t59.5 24.5t58 -24.5t23.5 -59.5t-24.5 -60.5t-57.5 -25.5q-35 0 -59.5 25.5t-24.5 60.5zM625 1804q0 35 23.5 59.5t58 24.5t58 -24.5t23.5 -59.5t-23.5 -60.5t-58 -25.5t-58 25.5t-23.5 60.5z"/>
<glyph unicode="Ü" horiz-adv-x="1173" d="M139 434v1004q0 29 25.5 44t60.5 15t60.5 -15.5t25.5 -43.5v-1004q0 -291 275 -291q133 0 204.5 73t71.5 218v1004q0 59 86 59q35 0 60.5 -15.5t25.5 -43.5v-1004q0 -231 -123 -338.5t-325.5 -107.5t-324.5 107.5t-122 338.5zM369 1804q0 35 24.5 59.5t59 24.5 t58.5 -24.5t24 -59.5t-25 -60.5t-57 -25.5q-35 0 -59.5 25.5t-24.5 60.5zM637 1804q0 35 23.5 59.5t58.5 24.5t58.5 -24.5t23.5 -59.5t-23.5 -60.5t-58.5 -25.5t-58.5 25.5t-23.5 60.5z"/>
<glyph unicode="ç" horiz-adv-x="854" d="M86 381v205q0 176 103.5 286.5t304.5 110.5q127 0 214 -45t87 -96q0 -29 -21.5 -56.5t-50.5 -27.5q-8 0 -70.5 35.5t-146.5 35.5q-123 0 -186.5 -63.5t-63.5 -179.5v-205q0 -244 252 -244q86 0 149.5 37t73.5 37q33 0 54.5 -26.5t21.5 -55.5q0 -47 -78 -91t-194 -52 l-27 -105q98 -2 147.5 -45t49.5 -104q0 -66 -48.5 -116t-142.5 -50q-55 0 -109.5 14t-54.5 41q0 14 10.5 35.5t26.5 21.5q4 0 40 -14t75 -14q106 0 106 76q0 74 -121 84l-88 6l45 170q-178 12 -268 120.5t-90 274.5z"/>
<glyph unicode="ö" horiz-adv-x="976" d="M84 381v209q0 158 120 275.5t283.5 117.5t284.5 -116.5t121 -276.5v-209q0 -156 -122 -276.5t-283.5 -120.5t-282.5 119.5t-121 277.5zM254 381q0 -96 69.5 -170t163.5 -74q96 0 166 75t70 169v209q0 92 -69.5 165.5t-166 73.5t-165 -73.5t-68.5 -165.5v-209zM272 1290 q0 35 25 59.5t59.5 24.5t58 -24.5t23.5 -59.5t-24.5 -60.5t-57.5 -25.5q-35 0 -59.5 25.5t-24.5 60.5zM541 1290q0 35 23.5 59.5t58 24.5t58.5 -24.5t24 -59.5t-24 -60.5t-58.5 -25.5t-58 25.5t-23.5 60.5z"/>
<glyph unicode="ü" horiz-adv-x="1034" d="M113 377v532q0 25 25.5 43.5t60.5 18.5q33 0 58.5 -19.5t25.5 -42.5v-532q0 -92 69.5 -166t165.5 -74q94 0 164 73t70 167v534q0 23 25.5 41.5t60.5 18.5q37 0 60.5 -17.5t23.5 -42.5v-534q0 -158 -120 -275.5t-284 -117.5q-166 0 -285.5 117.5t-119.5 275.5zM301 1290 q0 35 24.5 59.5t59.5 24.5t58.5 -24.5t23.5 -59.5t-24.5 -60.5t-57.5 -25.5q-35 0 -59.5 25.5t-24.5 60.5zM569 1290q0 35 23.5 59.5t58.5 24.5t58.5 -24.5t23.5 -59.5t-23.5 -60.5t-58.5 -25.5t-58.5 25.5t-23.5 60.5z"/>
<glyph unicode="Ā" horiz-adv-x="1126" d="M35 72q0 4 4 16l418 1362q18 59 106 59t107 -59l417 -1362q0 -4 1.5 -8t1.5 -6q0 -29 -34 -51.5t-73 -22.5q-49 0 -61 39l-91 305h-538l-90 -305q-12 -39 -64 -39q-37 0 -70.5 20.5t-33.5 51.5zM285 1861.5q0 26.5 16 45t43 18.5h434q25 0 43.5 -18.5t18.5 -45t-18.5 -44 t-43.5 -17.5h-434q-27 0 -43 17.5t-16 44zM332 485h459l-228 770z"/>
<glyph unicode="ā" horiz-adv-x="917" d="M57 256q0 160 123 222.5t357 62.5h98v43q0 102 -56.5 178t-168.5 76q-86 0 -151.5 -30t-72.5 -30q-29 0 -46 28t-17 58q0 47 93 83t198 36q201 0 296 -113.5t95 -283.5v-525q0 -27 -23.5 -44t-60.5 -17q-33 0 -55.5 17.5t-22.5 43.5v82q-139 -160 -309 -159 q-123 0 -200 69.5t-77 202.5zM172 1347.5q0 26.5 16.5 45t42.5 18.5h435q23 0 42 -19.5t19 -43.5q0 -27 -18.5 -44.5t-42.5 -17.5h-435q-27 0 -43 17.5t-16 44zM229 274q0 -76 43 -114.5t115 -38.5q86 0 167 68.5t81 140.5v106h-72q-59 0 -102 -3t-89 -12t-76 -26.5 t-48.5 -47.5t-18.5 -73z"/>
<glyph unicode="Ă" horiz-adv-x="1126" d="M35 72q0 4 4 16l418 1362q18 59 106 59t107 -59l417 -1362q0 -4 1.5 -8t1.5 -6q0 -29 -34 -51.5t-73 -22.5q-49 0 -61 39l-91 305h-538l-90 -305q-12 -39 -64 -39q-37 0 -70.5 20.5t-33.5 51.5zM313 1980h105q0 -68 43 -114.5t100 -46.5t100.5 47t43.5 114h104 q0 -98 -75 -172.5t-173 -74.5t-173 74.5t-75 172.5zM332 485h459l-228 770z"/>
<glyph unicode="ă" horiz-adv-x="917" d="M57 256q0 160 123 222.5t357 62.5h98v43q0 102 -56.5 178t-168.5 76q-86 0 -151.5 -30t-72.5 -30q-29 0 -46 28t-17 58q0 47 93 83t198 36q201 0 296 -113.5t95 -283.5v-525q0 -27 -23.5 -44t-60.5 -17q-33 0 -55.5 17.5t-22.5 43.5v82q-139 -160 -309 -159 q-123 0 -200 69.5t-77 202.5zM197 1466h104q0 -68 43 -114.5t100.5 -46.5t100.5 47t43 114h104q0 -98 -74.5 -172.5t-173 -74.5t-173 74.5t-74.5 172.5zM229 274q0 -76 43 -114.5t115 -38.5q86 0 167 68.5t81 140.5v106h-72q-59 0 -102 -3t-89 -12t-76 -26.5t-48.5 -47.5 t-18.5 -73z"/>
<glyph unicode="Ą" horiz-adv-x="1126" d="M35 72q0 4 4 16l418 1362q18 59 106 59t107 -59l417 -1362q0 -4 1.5 -8t1.5 -6q0 -43 -64 -66q-147 -123 -147 -250q0 -92 125 -92q41 0 40 -45q0 -39 -53 -39q-92 0 -150.5 41t-58.5 121q0 154 146 279l-97 321h-538l-90 -305q-12 -39 -64 -39q-37 0 -70.5 20.5 t-33.5 51.5zM332 485h459l-228 770z"/>
<glyph unicode="ą" horiz-adv-x="917" d="M57 256q0 160 123 222.5t357 62.5h98v43q0 102 -56.5 178t-168.5 76q-86 0 -151.5 -30t-72.5 -30q-29 0 -46 28t-17 58q0 47 93 83t198 36q201 0 296 -113.5t95 -283.5v-525q0 -37 -43 -53q-147 -123 -148 -250q0 -92 125 -92q41 0 41 -45q0 -39 -53 -39q-92 0 -150.5 41 t-58.5 121q0 154 144 276q-18 16 -19 41v82q-139 -160 -309 -159q-123 0 -200 69.5t-77 202.5zM229 274q0 -76 43 -114.5t115 -38.5q86 0 167 68.5t81 140.5v106h-72q-59 0 -102 -3t-89 -12t-76 -26.5t-48.5 -47.5t-18.5 -73z"/>
<glyph unicode="Ć" horiz-adv-x="1087" d="M131 434v617q0 229 122 337.5t318 108.5q201 0 322 -101.5t121 -254.5q0 -55 -20.5 -74.5t-65.5 -19.5q-82 0 -86 59q-12 236 -267 235q-272 0 -272 -290v-617q0 -291 279 -291q80 0 133 22.5t78.5 65.5t34 74t14.5 82q6 59 86 59q45 0 65.5 -20t20.5 -76 q0 -156 -122 -259t-323 -103q-195 0 -316.5 108.5t-121.5 337.5zM420 1780q0 31 26 45l240 127q12 4 21 4q25 0 41 -21.5t16 -48.5q0 -35 -29 -49l-231 -119q-16 -8 -23 -8q-25 0 -43 21.5t-18 48.5z"/>
<glyph unicode="ć" horiz-adv-x="854" d="M86 381v205q0 176 103.5 286.5t304.5 110.5q127 0 214 -45t87 -96q0 -29 -21.5 -56.5t-50.5 -27.5q-8 0 -70.5 35.5t-146.5 35.5q-123 0 -186.5 -63.5t-63.5 -179.5v-205q0 -244 252 -244q86 0 149.5 37t73.5 37q33 0 54.5 -26.5t21.5 -55.5q0 -51 -90 -98t-221 -47 q-203 0 -306.5 109.5t-103.5 287.5zM293 1266q0 31 26 45l240 127q12 4 21 4q25 0 41 -21.5t16 -48.5q0 -35 -29 -49l-231 -119q-16 -8 -23 -8q-25 0 -43 21.5t-18 48.5z"/>
<glyph unicode="Ĉ" horiz-adv-x="1087" d="M131 434v617q0 229 122 337.5t318 108.5q201 0 322 -101.5t121 -254.5q0 -55 -20.5 -74.5t-65.5 -19.5q-82 0 -86 59q-12 236 -267 235q-272 0 -272 -290v-617q0 -291 279 -291q80 0 133 22.5t78.5 65.5t34 74t14.5 82q6 59 86 59q45 0 65.5 -20t20.5 -76 q0 -156 -122 -259t-323 -103q-195 0 -316.5 108.5t-121.5 337.5zM293 1778q0 37 31 53l213 115q20 10 34 10q18 0 35 -10l213 -113q33 -18 33 -57q0 -23 -14.5 -40.5t-32.5 -17.5q-4 0 -12 2q-4 4 -9 4l-213 115l-213 -115q-10 -6 -18 -6q-18 0 -32.5 18.5t-14.5 41.5z"/>
<glyph unicode="ĉ" horiz-adv-x="854" d="M86 381v205q0 176 103.5 286.5t304.5 110.5q127 0 214 -45t87 -96q0 -29 -21.5 -56.5t-50.5 -27.5q-8 0 -70.5 35.5t-146.5 35.5q-123 0 -186.5 -63.5t-63.5 -179.5v-205q0 -244 252 -244q86 0 149.5 37t73.5 37q33 0 54.5 -26.5t21.5 -55.5q0 -51 -90 -98t-221 -47 q-203 0 -306.5 109.5t-103.5 287.5zM178 1264q0 39 31 53l213 115q20 10 35 10q18 0 35 -10l213 -113q33 -18 32 -57q0 -23 -14 -40.5t-33 -17.5q-4 0 -12 2q-4 4 -8 4l-213 115l-213 -115q-10 -6 -19 -6q-18 0 -32.5 18.5t-14.5 41.5z"/>
<glyph unicode="Ċ" horiz-adv-x="1087" d="M131 434v617q0 229 122 337.5t318 108.5q201 0 322 -101.5t121 -254.5q0 -55 -20.5 -74.5t-65.5 -19.5q-82 0 -86 59q-12 236 -267 235q-272 0 -272 -290v-617q0 -291 279 -291q80 0 133 22.5t78.5 65.5t34 74t14.5 82q6 59 86 59q45 0 65.5 -20t20.5 -76 q0 -156 -122 -259t-323 -103q-195 0 -316.5 108.5t-121.5 337.5zM492 1804q0 35 24.5 59.5t59 24.5t58 -24.5t23.5 -59.5t-24.5 -60.5t-57.5 -25.5q-35 0 -59 25.5t-24 60.5z"/>
<glyph unicode="ċ" horiz-adv-x="854" d="M86 381v205q0 176 103.5 286.5t304.5 110.5q127 0 214 -45t87 -96q0 -29 -21.5 -56.5t-50.5 -27.5q-8 0 -70.5 35.5t-146.5 35.5q-123 0 -186.5 -63.5t-63.5 -179.5v-205q0 -244 252 -244q86 0 149.5 37t73.5 37q33 0 54.5 -26.5t21.5 -55.5q0 -51 -90 -98t-221 -47 q-203 0 -306.5 109.5t-103.5 287.5zM371 1290q0 35 24.5 59.5t59 24.5t58.5 -24.5t24 -59.5t-25 -60.5t-57 -25.5q-35 0 -59.5 25.5t-24.5 60.5z"/>
<glyph unicode="Č" horiz-adv-x="1087" d="M131 434v617q0 229 122 337.5t318 108.5q201 0 322 -101.5t121 -254.5q0 -55 -20.5 -74.5t-65.5 -19.5q-82 0 -86 59q-12 236 -267 235q-272 0 -272 -290v-617q0 -291 279 -291q80 0 133 22.5t78.5 65.5t34 74t14.5 82q6 59 86 59q45 0 65.5 -20t20.5 -76 q0 -156 -122 -259t-323 -103q-195 0 -316.5 108.5t-121.5 337.5zM293 1956q0 20 12 37.5t31 17.5q16 0 29 -12l204 -172l207 172q10 12 28.5 12t31 -17.5t12.5 -37.5q0 -35 -31 -55l-207 -170q-20 -18 -40.5 -18.5t-39.5 18.5l-208 170q-29 20 -29 55z"/>
<glyph unicode="č" horiz-adv-x="854" d="M86 381v205q0 176 103.5 286.5t304.5 110.5q127 0 214 -45t87 -96q0 -29 -21.5 -56.5t-50.5 -27.5q-8 0 -70.5 35.5t-146.5 35.5q-123 0 -186.5 -63.5t-63.5 -179.5v-205q0 -244 252 -244q86 0 149.5 37t73.5 37q33 0 54.5 -26.5t21.5 -55.5q0 -51 -90 -98t-221 -47 q-203 0 -306.5 109.5t-103.5 287.5zM172 1442q0 20 12.5 37.5t30.5 17.5q16 0 29 -12l205 -172l206 172q10 12 28.5 12t31 -17.5t12.5 -37.5q0 -35 -31 -56l-207 -169q-23 -18 -40 -19q-20 0 -39 19l-209 169q-29 21 -29 56z"/>
<glyph unicode="Ď" horiz-adv-x="1159" d="M145 59v1379q0 25 21.5 42t56.5 17h363q201 0 321.5 -107.5t120.5 -338.5v-605q0 -231 -121 -338.5t-321 -107.5h-363q-35 0 -56.5 17t-21.5 42zM287 1956q0 20 12 37.5t31 17.5q16 0 28 -12l205 -172l207 172q10 12 28.5 12t31 -17.5t12.5 -37.5q0 -35 -31 -55 l-207 -170q-23 -18 -41 -19q-20 0 -39 19l-209 170q-28 20 -28 55zM317 156h269q129 0 199.5 72.5t70.5 217.5v605q0 145 -70.5 217.5t-199.5 72.5h-269v-1185z"/>
<glyph unicode="ď" d="M84 381v209q0 162 108.5 277.5t258.5 115.5q92 0 161.5 -45t106.5 -111v670q0 27 24.5 43t61.5 16t60.5 -16t23.5 -43v-1436q0 -25 -24.5 -43t-59.5 -18q-31 0 -54.5 18.5t-23.5 42.5v82q-35 -66 -112.5 -112.5t-170.5 -46.5q-143 0 -251.5 120.5t-108.5 276.5zM254 381 q0 -94 69.5 -169t161.5 -75q90 0 162 68.5t72 120.5v264q0 106 -69.5 172.5t-162.5 66.5q-94 0 -163.5 -73.5t-69.5 -165.5v-209zM1006 1411q0 43 30.5 75t75.5 32q43 0 75 -32t32 -75t-93 -250q-12 -27 -41 -26q-23 0 -42 13t-19 36q0 8 4 20l43 107q-65 26 -65 100z"/>
<glyph unicode="Đ" horiz-adv-x="1175" d="M-6 784q0 29 14.5 48.5t36.5 19.5h117v586q0 25 21.5 42t56.5 17h362q201 0 321.5 -107.5t120.5 -338.5v-605q0 -231 -120.5 -338.5t-321.5 -107.5h-362q-35 0 -56.5 17.5t-21.5 41.5v660h-117q-25 0 -38 19t-13 46zM334 156h268q129 0 199.5 72.5t70.5 217.5v605 q0 145 -70.5 217.5t-199.5 72.5h-268v-489h211q23 0 38 -20.5t15 -47t-15.5 -46t-37.5 -19.5h-211v-563z"/>
<glyph unicode="đ" d="M84 381v209q0 162 108.5 277.5t258.5 115.5q92 0 161.5 -45t106.5 -111v336h-219q-25 0 -39.5 19.5t-14.5 46t14.5 47t39.5 20.5h219v201q0 27 24.5 43t61.5 16t60.5 -16t23.5 -43v-201h88q23 0 38 -20.5t15 -46.5q0 -29 -15.5 -47.5t-37.5 -18.5h-88v-1102 q0 -25 -24.5 -43t-59.5 -18q-31 0 -54.5 18.5t-23.5 42.5v82q-35 -66 -112.5 -112.5t-170.5 -46.5q-143 0 -251.5 120.5t-108.5 276.5zM254 381q0 -94 69.5 -169t161.5 -75q90 0 162 68.5t72 120.5v264q0 106 -69.5 172.5t-162.5 66.5q-94 0 -163.5 -73.5t-69.5 -165.5v-209 z"/>
<glyph unicode="Ē" horiz-adv-x="1052" d="M145 61v1375q0 29 24 45t54 16h729q29 0 44.5 -22.5t15.5 -53.5q0 -33 -16.5 -56.5t-43.5 -23.5h-635v-520h320q27 0 43 -21.5t16 -51.5q0 -27 -15 -48.5t-44 -21.5h-320v-522h635q27 0 43.5 -23.5t16.5 -56.5q0 -31 -15.5 -53.5t-44.5 -22.5h-729q-31 0 -54.5 16 t-23.5 45zM305 1861.5q0 26.5 16.5 45t43.5 18.5h434q25 0 43 -18.5t18 -45t-18.5 -44t-42.5 -17.5h-434q-27 0 -43.5 17.5t-16.5 44z"/>
<glyph unicode="ē" horiz-adv-x="952" d="M84 381v215q0 158 120 272.5t288 114.5q160 0 276.5 -107.5t116.5 -269.5q0 -59 -14.5 -95t-44 -51.5t-55.5 -19.5t-69 -4h-448v-61q0 -113 81 -180.5t210 -67.5q68 0 118 20.5t80.5 40t49.5 19.5q29 0 49 -25.5t20 -52.5q0 -47 -93 -96t-230 -49q-201 0 -328 109.5 t-127 287.5zM213 1347.5q0 26.5 16.5 45t42.5 18.5h435q23 0 42 -19.5t19 -43.5q0 -27 -18.5 -44.5t-42.5 -17.5h-435q-27 0 -43 17.5t-16 44zM254 551h379q53 0 71.5 13.5t18.5 51.5q0 92 -67.5 162t-166.5 70q-96 0 -165.5 -64.5t-69.5 -158.5v-74z"/>
<glyph unicode="Ĕ" horiz-adv-x="1052" d="M145 61v1375q0 29 24 45t54 16h729q29 0 44.5 -22.5t15.5 -53.5q0 -33 -16.5 -56.5t-43.5 -23.5h-635v-520h320q27 0 43 -21.5t16 -51.5q0 -27 -15 -48.5t-44 -21.5h-320v-522h635q27 0 43.5 -23.5t16.5 -56.5q0 -31 -15.5 -53.5t-44.5 -22.5h-729q-31 0 -54.5 16 t-23.5 45zM328 1980h104q0 -68 43 -114.5t100.5 -46.5t100.5 47t43 114h104q0 -98 -74.5 -172.5t-173 -74.5t-173 74.5t-74.5 172.5z"/>
<glyph unicode="ĕ" horiz-adv-x="952" d="M84 381v215q0 158 120 272.5t288 114.5q160 0 276.5 -107.5t116.5 -269.5q0 -59 -14.5 -95t-44 -51.5t-55.5 -19.5t-69 -4h-448v-61q0 -113 81 -180.5t210 -67.5q68 0 118 20.5t80.5 40t49.5 19.5q29 0 49 -25.5t20 -52.5q0 -47 -93 -96t-230 -49q-201 0 -328 109.5 t-127 287.5zM240 1466h104q0 -68 43 -114.5t100.5 -46.5t100.5 47t43 114h104q0 -98 -74.5 -172.5t-173 -74.5t-173 74.5t-74.5 172.5zM254 551h379q53 0 71.5 13.5t18.5 51.5q0 92 -67.5 162t-166.5 70q-96 0 -165.5 -64.5t-69.5 -158.5v-74z"/>
<glyph unicode="Ė" horiz-adv-x="1052" d="M145 61v1375q0 29 24 45t54 16h729q29 0 44.5 -22.5t15.5 -53.5q0 -33 -16.5 -56.5t-43.5 -23.5h-635v-520h320q27 0 43 -21.5t16 -51.5q0 -27 -15 -48.5t-44 -21.5h-320v-522h635q27 0 43.5 -23.5t16.5 -56.5q0 -31 -15.5 -53.5t-44.5 -22.5h-729q-31 0 -54.5 16 t-23.5 45zM506 1804q0 35 24.5 59.5t59.5 24.5t58.5 -24.5t23.5 -59.5t-24.5 -60.5t-57.5 -25.5q-35 0 -59.5 25.5t-24.5 60.5z"/>
<glyph unicode="ė" horiz-adv-x="952" d="M84 381v215q0 158 120 272.5t288 114.5q160 0 276.5 -107.5t116.5 -269.5q0 -59 -14.5 -95t-44 -51.5t-55.5 -19.5t-69 -4h-448v-61q0 -113 81 -180.5t210 -67.5q68 0 118 20.5t80.5 40t49.5 19.5q29 0 49 -25.5t20 -52.5q0 -47 -93 -96t-230 -49q-201 0 -328 109.5 t-127 287.5zM254 551h379q53 0 71.5 13.5t18.5 51.5q0 92 -67.5 162t-166.5 70q-96 0 -165.5 -64.5t-69.5 -158.5v-74zM406 1290q0 35 24.5 59.5t59 24.5t58 -24.5t23.5 -59.5t-24.5 -60.5t-57.5 -25.5q-35 0 -59 25.5t-24 60.5z"/>
<glyph unicode="Ę" horiz-adv-x="1052" d="M145 61v1375q0 29 24 45t54 16h729q29 0 44.5 -22.5t15.5 -53.5q0 -33 -16.5 -56.5t-43.5 -23.5h-635v-520h320q27 0 43 -21.5t16 -51.5q0 -27 -15 -48.5t-44 -21.5h-320v-522h635q27 0 43.5 -23.5t16.5 -56.5q0 -59 -39 -74q-143 -119 -144 -244q0 -92 125 -92 q41 0 41 -45q0 -39 -53 -39q-92 0 -150.5 41t-58.5 121q0 139 121 256h-631q-31 0 -54.5 16t-23.5 45z"/>
<glyph unicode="ę" horiz-adv-x="952" d="M84 381v215q0 158 120 272.5t288 114.5q160 0 276.5 -107.5t116.5 -269.5q0 -59 -14.5 -95t-44 -51.5t-55.5 -19.5t-69 -4h-448v-61q0 -113 81 -180.5t210 -67.5q68 0 118 20.5t80.5 40t49.5 19.5q29 0 49 -25.5t20 -52.5q0 -25 -28.5 -52.5t-79.5 -49.5 q-133 -119 -133 -238q0 -92 124 -92q41 0 41 -45q0 -39 -53 -39q-92 0 -150.5 41t-58.5 121q0 111 82 213q-45 -4 -67 -4q-201 0 -328 109.5t-127 287.5zM254 551h379q53 0 71.5 13.5t18.5 51.5q0 92 -67.5 162t-166.5 70q-96 0 -165.5 -64.5t-69.5 -158.5v-74z"/>
<glyph unicode="Ě" horiz-adv-x="1052" d="M145 61v1375q0 29 24 45t54 16h729q29 0 44.5 -22.5t15.5 -53.5q0 -33 -16.5 -56.5t-43.5 -23.5h-635v-520h320q27 0 43 -21.5t16 -51.5q0 -27 -15 -48.5t-44 -21.5h-320v-522h635q27 0 43.5 -23.5t16.5 -56.5q0 -31 -15.5 -53.5t-44.5 -22.5h-729q-31 0 -54.5 16 t-23.5 45zM297 1956q0 20 12.5 37.5t30.5 17.5q16 0 29 -12l204 -172l207 172q10 12 28.5 12t31 -17.5t12.5 -37.5q0 -35 -31 -55l-207 -170q-20 -18 -40.5 -18.5t-38.5 18.5l-209 170q-29 20 -29 55z"/>
<glyph unicode="ě" horiz-adv-x="952" d="M84 381v215q0 158 120 272.5t288 114.5q160 0 276.5 -107.5t116.5 -269.5q0 -59 -14.5 -95t-44 -51.5t-55.5 -19.5t-69 -4h-448v-61q0 -113 81 -180.5t210 -67.5q68 0 118 20.5t80.5 40t49.5 19.5q29 0 49 -25.5t20 -52.5q0 -47 -93 -96t-230 -49q-201 0 -328 109.5 t-127 287.5zM211 1442q0 20 12.5 37.5t30.5 17.5q16 0 29 -12l204 -172l207 172q10 12 28.5 12t31 -17.5t12.5 -37.5q0 -35 -31 -56l-207 -169q-20 -18 -40.5 -18.5t-38.5 18.5l-209 169q-29 21 -29 56zM254 551h379q53 0 71.5 13.5t18.5 51.5q0 92 -67.5 162t-166.5 70 q-96 0 -165.5 -64.5t-69.5 -158.5v-74z"/>
<glyph unicode="Ĝ" horiz-adv-x="1122" d="M131 434v617q0 231 120 338.5t316 107.5q201 0 324 -101.5t123 -265.5q0 -47 -21.5 -65t-64.5 -18q-84 0 -86 59q-27 236 -271 235q-268 0 -268 -290v-617q0 -291 268 -291q129 0 200 73t71 218v209h-244q-29 0 -44 21.5t-15 50t16 50t43 21.5h356q29 0 44.5 -18 t15.5 -45v-289q0 -231 -121 -338.5t-321.5 -107.5t-320.5 107.5t-120 338.5zM281 1778q0 37 30 53l213 115q20 10 35 10q18 0 35 -10l213 -113q33 -18 33 -57q0 -23 -14.5 -40.5t-32.5 -17.5q-4 0 -13 2q-4 4 -8 4l-213 115l-213 -115q-10 -6 -18 -6q-18 0 -32.5 18.5 t-14.5 41.5z"/>
<glyph unicode="ĝ" horiz-adv-x="935" d="M45 -193q0 150 166 224q-104 39 -105 137q0 94 103 151q-117 94 -117 259v67q0 150 100.5 244t264.5 94q139 0 239 -80q61 133 140 133q33 0 53 -19.5t20 -43.5q0 -31 -35 -47q-70 -18 -110 -86q63 -76 63 -195v-67q0 -147 -104.5 -243.5t-265.5 -96.5q-84 0 -152 30 q-51 -31 -51 -69.5t47 -60t116.5 -27t151.5 -19.5t152 -36.5t117 -80t47 -145.5q0 -145 -116 -222t-300 -77t-304 74.5t-120 201.5zM197 1264q0 39 30 53l213 115q20 10 35 10q18 0 35 -10l213 -113q33 -18 33 -57q0 -23 -13.5 -40.5t-33.5 -17.5q-4 0 -13 2q-4 4 -8 4 l-213 115l-213 -115q-8 -6 -18 -6q-18 0 -32.5 18.5t-14.5 41.5zM207 -174q0 -80 70.5 -128t189.5 -48q115 0 183.5 48t68.5 128q0 33 -11.5 57.5t-36 41t-49 27.5t-63.5 18t-64.5 10.5t-67.5 7.5t-58 6q-162 -53 -162 -168zM258 580q0 -98 54.5 -162t148.5 -64 q90 0 145.5 62.5t55.5 161.5v67q0 94 -55.5 157.5t-147.5 63.5q-94 0 -147.5 -62.5t-53.5 -158.5v-65z"/>
<glyph unicode="Ğ" horiz-adv-x="1122" d="M131 434v617q0 231 120 338.5t316 107.5q201 0 324 -101.5t123 -265.5q0 -47 -21.5 -65t-64.5 -18q-84 0 -86 59q-27 236 -271 235q-268 0 -268 -290v-617q0 -291 268 -291q129 0 200 73t71 218v209h-244q-29 0 -44 21.5t-15 50t16 50t43 21.5h356q29 0 44.5 -18 t15.5 -45v-289q0 -231 -121 -338.5t-321.5 -107.5t-320.5 107.5t-120 338.5zM322 1980h104q0 -68 43 -114.5t100.5 -46.5t100.5 47t43 114h104q0 -98 -74.5 -172.5t-173 -74.5t-173 74.5t-74.5 172.5z"/>
<glyph unicode="ğ" horiz-adv-x="935" d="M45 -193q0 150 166 224q-104 39 -105 137q0 94 103 151q-117 94 -117 259v67q0 150 100.5 244t264.5 94q139 0 239 -80q61 133 140 133q33 0 53 -19.5t20 -43.5q0 -31 -35 -47q-70 -18 -110 -86q63 -76 63 -195v-67q0 -147 -104.5 -243.5t-265.5 -96.5q-84 0 -152 30 q-51 -31 -51 -69.5t47 -60t116.5 -27t151.5 -19.5t152 -36.5t117 -80t47 -145.5q0 -145 -116 -222t-300 -77t-304 74.5t-120 201.5zM207 -174q0 -80 70.5 -128t189.5 -48q115 0 183.5 48t68.5 128q0 33 -11.5 57.5t-36 41t-49 27.5t-63.5 18t-64.5 10.5t-67.5 7.5t-58 6 q-162 -53 -162 -168zM227 1466h105q0 -68 43 -114.5t100 -46.5t100 47t43 114h105q0 -98 -75 -172.5t-173 -74.5t-173 74.5t-75 172.5zM258 580q0 -98 54.5 -162t148.5 -64q90 0 145.5 62.5t55.5 161.5v67q0 94 -55.5 157.5t-147.5 63.5q-94 0 -147.5 -62.5t-53.5 -158.5 v-65z"/>
<glyph unicode="Ġ" horiz-adv-x="1122" d="M131 434v617q0 231 120 338.5t316 107.5q201 0 324 -101.5t123 -265.5q0 -47 -21.5 -65t-64.5 -18q-84 0 -86 59q-27 236 -271 235q-268 0 -268 -290v-617q0 -291 268 -291q129 0 200 73t71 218v209h-244q-29 0 -44 21.5t-15 50t16 50t43 21.5h356q29 0 44.5 -18 t15.5 -45v-289q0 -231 -121 -338.5t-321.5 -107.5t-320.5 107.5t-120 338.5zM485 1804q0 35 25 59.5t59.5 24.5t58 -24.5t23.5 -59.5t-24.5 -60.5t-57.5 -25.5q-35 0 -59.5 25.5t-24.5 60.5z"/>
<glyph unicode="ġ" horiz-adv-x="935" d="M45 -193q0 150 166 224q-104 39 -105 137q0 94 103 151q-117 94 -117 259v67q0 150 100.5 244t264.5 94q139 0 239 -80q61 133 140 133q33 0 53 -19.5t20 -43.5q0 -31 -35 -47q-70 -18 -110 -86q63 -76 63 -195v-67q0 -147 -104.5 -243.5t-265.5 -96.5q-84 0 -152 30 q-51 -31 -51 -69.5t47 -60t116.5 -27t151.5 -19.5t152 -36.5t117 -80t47 -145.5q0 -145 -116 -222t-300 -77t-304 74.5t-120 201.5zM207 -174q0 -80 70.5 -128t189.5 -48q115 0 183.5 48t68.5 128q0 33 -11.5 57.5t-36 41t-49 27.5t-63.5 18t-64.5 10.5t-67.5 7.5t-58 6 q-162 -53 -162 -168zM258 580q0 -98 54.5 -162t148.5 -64q90 0 145.5 62.5t55.5 161.5v67q0 94 -55.5 157.5t-147.5 63.5q-94 0 -147.5 -62.5t-53.5 -158.5v-65zM393 1290q0 35 24.5 59.5t59.5 24.5t58.5 -24.5t23.5 -59.5t-24.5 -60.5t-57.5 -25.5q-35 0 -59.5 25.5 t-24.5 60.5z"/>
<glyph unicode="Ģ" horiz-adv-x="1122" d="M131 434v617q0 231 120 338.5t316 107.5q201 0 324 -101.5t123 -265.5q0 -47 -21.5 -65t-64.5 -18q-84 0 -86 59q-27 236 -271 235q-268 0 -268 -290v-617q0 -291 268 -291q129 0 200 73t71 218v209h-244q-29 0 -44 21.5t-15 50t16 50t43 21.5h356q29 0 44.5 -18 t15.5 -45v-289q0 -231 -121 -338.5t-321.5 -107.5t-320.5 107.5t-120 338.5zM395 -274q0 31 27 45l240 127q16 4 20 4q25 0 42 -21.5t17 -48.5q0 -33 -28 -49l-232 -121q-12 -6 -24 -6q-25 0 -43.5 21.5t-18.5 48.5z"/>
<glyph unicode="ģ" horiz-adv-x="935" d="M45 -193q0 150 166 224q-104 39 -105 137q0 94 103 151q-117 94 -117 259v67q0 150 100.5 244t264.5 94q139 0 239 -80q61 133 140 133q33 0 53 -19.5t20 -43.5q0 -31 -35 -47q-70 -18 -110 -86q63 -76 63 -195v-67q0 -147 -104.5 -243.5t-265.5 -96.5q-84 0 -152 30 q-51 -31 -51 -69.5t47 -60t116.5 -27t151.5 -19.5t152 -36.5t117 -80t47 -145.5q0 -145 -116 -222t-300 -77t-304 74.5t-120 201.5zM207 -174q0 -80 70.5 -128t189.5 -48q115 0 183.5 48t68.5 128q0 33 -11.5 57.5t-36 41t-49 27.5t-63.5 18t-64.5 10.5t-67.5 7.5t-58 6 q-162 -53 -162 -168zM258 580q0 -98 54.5 -162t148.5 -64q90 0 145.5 62.5t55.5 161.5v67q0 94 -55.5 157.5t-147.5 63.5q-94 0 -147.5 -62.5t-53.5 -158.5v-65zM309 1266q0 31 27 45l239 127q12 4 21 4q25 0 41 -21.5t16 -48.5q0 -35 -28 -49l-232 -119q-16 -8 -22 -8 q-25 0 -43.5 21.5t-18.5 48.5zM362 1772q0 43 93 249q12 27 41 27q23 0 42 -14.5t19 -36.5q0 -12 -4 -21l-43 -106q66 -27 65 -98q0 -45 -30.5 -76t-75.5 -31q-43 0 -75 31t-32 76z"/>
<glyph unicode="Ĥ" horiz-adv-x="1189" d="M145 61v1377q0 29 26 44t60.5 15t60 -15.5t25.5 -43.5v-590h555v590q0 29 26 44t60.5 15t60 -15.5t25.5 -43.5v-1377q0 -29 -25.5 -45t-60 -16t-60.5 16.5t-26 44.5v644h-555v-644q0 -29 -25.5 -45t-60 -16t-60.5 16t-26 45zM315 1778q0 37 31 53l213 115q20 10 35 10 q18 0 35 -10l213 -113q33 -18 32 -57q0 -23 -13 -40.5t-34 -17.5q-4 0 -12 2q-4 4 -8 4l-213 115l-213 -115q-8 -6 -19 -6q-18 0 -32.5 18.5t-14.5 41.5z"/>
<glyph unicode="ĥ" horiz-adv-x="1032" d="M-72 1786q0 37 31 53l213 115q20 10 35 10q18 0 35 -10l213 -113q33 -18 32 -57q0 -23 -14 -40.5t-33 -17.5q-4 0 -12 3q-4 4 -8 4l-213 114l-213 -114q-10 -6 -19 -7q-18 0 -32.5 18.5t-14.5 41.5zM123 61v1436q0 27 23.5 43t60.5 16t61.5 -16t24.5 -43v-670 q35 66 103.5 111t162.5 45q145 0 253 -115.5t108 -277.5v-529q0 -29 -26 -45t-60 -16q-33 0 -58.5 16.5t-25.5 44.5v529q0 92 -70 165.5t-164 73.5q-88 0 -155.5 -66.5t-67.5 -172.5v-529q0 -23 -25.5 -42t-60.5 -19t-59.5 18t-24.5 43z"/>
<glyph unicode="Ħ" horiz-adv-x="1198" d="M39 1163q0 27 14.5 45.5t38.5 18.5h58v211q0 29 25.5 44t60 15t60.5 -15.5t26 -43.5v-211h555v211q0 29 25.5 44t60 15t60.5 -15.5t26 -43.5v-211h55q25 0 39 -18.5t14 -45.5q0 -25 -14.5 -42t-38.5 -17h-55v-1043q0 -29 -26 -45t-60.5 -16t-60 16.5t-25.5 44.5v644h-555 v-644q0 -29 -26 -45t-60.5 -16t-60 16.5t-25.5 44.5v1043h-58q-25 0 -39 17t-14 42zM322 848h555v256h-555v-256z"/>
<glyph unicode="ħ" horiz-adv-x="1032" d="M6 1235q0 27 16.5 45t43.5 18h57v199q0 27 23.5 43t60.5 16t61.5 -16t24.5 -43v-199h207q25 0 43 -18t18 -45t-18.5 -44t-42.5 -17h-207v-347q35 66 103.5 111t162.5 45q145 0 253 -115.5t108 -277.5v-529q0 -29 -26 -45t-60 -16q-33 0 -58.5 16.5t-25.5 44.5v529 q0 92 -70 165.5t-164 73.5q-88 0 -155.5 -66.5t-67.5 -172.5v-529q0 -23 -25.5 -42t-60.5 -19t-59.5 18.5t-24.5 42.5v1113h-57q-27 0 -43.5 17t-16.5 44z"/>
<glyph unicode="Ĩ" horiz-adv-x="462" d="M-96 1817q0 59 60.5 92t117.5 33q55 0 139 -34t137 -34q51 0 94.5 27.5t55.5 27.5q23 0 36 -19.5t13 -37.5q0 -63 -57.5 -93t-114.5 -30q-61 0 -143 34t-136 34q-51 0 -97 -30t-58 -30q-23 0 -35 20t-12 40zM145 61v1377q0 29 26 44t60.5 15t60 -15.5t25.5 -43.5v-1377 q0 -29 -25.5 -45t-60 -16t-60.5 16t-26 45z"/>
<glyph unicode="ĩ" horiz-adv-x="411" d="M-121 1303q0 59 60.5 91.5t117.5 32.5q55 0 139.5 -33.5t137.5 -33.5q51 0 94 27.5t55 27.5q23 0 36 -19.5t13 -37.5q0 -63 -57 -93t-115 -30q-61 0 -143 34t-135 34q-51 0 -97 -30t-59 -30q-23 0 -35 20t-12 40zM121 61v850q0 27 24.5 43.5t59.5 16.5q37 0 61.5 -16.5 t24.5 -43.5v-850q0 -23 -25.5 -42t-60.5 -19t-59.5 18t-24.5 43z"/>
<glyph unicode="Ī" horiz-adv-x="462" d="M-47 1861.5q0 26.5 16.5 45t42.5 18.5h434q25 0 43.5 -18.5t18.5 -45t-18.5 -44t-43.5 -17.5h-434q-27 0 -43 17.5t-16 44zM145 61v1377q0 29 26 44t60.5 15t60 -15.5t25.5 -43.5v-1377q0 -29 -25.5 -45t-60 -16t-60.5 16t-26 45z"/>
<glyph unicode="ī" horiz-adv-x="411" d="M-72 1347.5q0 26.5 16.5 45t43.5 18.5h434q25 0 43 -19.5t18 -43.5q0 -27 -18.5 -44.5t-42.5 -17.5h-434q-27 0 -43.5 17.5t-16.5 44zM121 61v850q0 27 24.5 43.5t59.5 16.5q37 0 61.5 -16.5t24.5 -43.5v-850q0 -23 -25.5 -42t-60.5 -19t-59.5 18t-24.5 43z"/>
<glyph unicode="Ĭ" horiz-adv-x="462" d="M-16 1980h104q0 -68 43 -114.5t100.5 -46.5t100.5 47t43 114h104q0 -98 -74.5 -172.5t-173 -74.5t-173 74.5t-74.5 172.5zM145 61v1377q0 29 26 44t60.5 15t60 -15.5t25.5 -43.5v-1377q0 -29 -25.5 -45t-60 -16t-60.5 16t-26 45z"/>
<glyph unicode="ĭ" horiz-adv-x="411" d="M-41 1466h104q0 -68 43.5 -114.5t100.5 -46.5t100 47t43 114h105q0 -98 -75 -172.5t-173 -74.5t-173 74.5t-75 172.5zM121 61v850q0 27 24.5 43.5t59.5 16.5q37 0 61.5 -16.5t24.5 -43.5v-850q0 -23 -25.5 -42t-60.5 -19t-59.5 18t-24.5 43z"/>
<glyph unicode="Į" horiz-adv-x="462" d="M37 -250q0 147 133 266q-25 18 -25 45v1377q0 29 26 44t60.5 15t60 -15.5t25.5 -43.5v-1377q0 -41 -45 -55q-139 -119 -139 -242q0 -92 125 -92q41 0 41 -45q0 -39 -53 -39q-92 0 -150.5 41t-58.5 121z"/>
<glyph unicode="į" horiz-adv-x="411" d="M6 -254q0 150 139 272q-25 14 -24 43v850q0 27 24.5 43.5t59.5 16.5q37 0 61.5 -16.5t24.5 -43.5v-850q0 -31 -39 -51q-150 -117 -150 -250q0 -92 125 -92q41 0 41 -45q0 -39 -53 -39q-92 0 -150.5 41t-58.5 121zM98 1335q0 39 31 68t76 29q43 0 73.5 -29t30.5 -68 t-30.5 -68.5t-73.5 -29.5t-75 29.5t-32 68.5z"/>
<glyph unicode="İ" horiz-adv-x="462" d="M145 61v1377q0 29 26 44t60.5 15t60 -15.5t25.5 -43.5v-1377q0 -29 -25.5 -45t-60 -16t-60.5 16t-26 45zM147 1804q0 35 25 59.5t59.5 24.5t58 -24.5t23.5 -59.5t-24.5 -60.5t-57.5 -25.5q-35 0 -59.5 25.5t-24.5 60.5z"/>
<glyph unicode="ı" horiz-adv-x="411" d="M121 61v850q0 27 24.5 43.5t59.5 16.5q37 0 61.5 -16.5t24.5 -43.5v-850q0 -23 -25.5 -42t-60.5 -19t-59.5 18t-24.5 43z"/>
<glyph unicode="Ĳ" horiz-adv-x="1513" d="M145 61v1377q0 29 26 44t60.5 15t60 -15.5t25.5 -43.5v-1377q0 -29 -25.5 -45t-60 -16t-60.5 16t-26 45zM492 362q0 47 21.5 65.5t64.5 18.5q86 0 86 -59q0 -109 70.5 -176.5t197.5 -67.5q270 0 270 291v907h-266q-29 0 -44 22.5t-15 57.5q0 76 59 76h360 q31 0 54.5 -16.5t23.5 -44.5v-1002q0 -231 -119.5 -338.5t-316.5 -107.5q-201 0 -323.5 103t-122.5 271z"/>
<glyph unicode="ĳ" horiz-adv-x="804" d="M98 1335q0 39 31 68t76 29q43 0 73.5 -29t30.5 -68t-30.5 -68.5t-73.5 -29.5t-75 29.5t-32 68.5zM121 61v850q0 27 24.5 43.5t59.5 16.5q37 0 61.5 -16.5t24.5 -43.5v-850q0 -23 -25.5 -42t-60.5 -19t-59.5 18t-24.5 43zM313 -395q0 33 20.5 54.5t49.5 21.5 q80 0 104.5 59t24.5 178v993q0 27 23.5 43.5t60.5 16.5t61.5 -16.5t24.5 -43.5v-993q0 -178 -69.5 -282.5t-211.5 -104.5q-88 0 -88 74zM489 1335q0 39 31 68t76 29q43 0 73.5 -29t30.5 -68t-30.5 -68.5t-73.5 -29.5t-75 29.5t-32 68.5z"/>
<glyph unicode="Ĵ" horiz-adv-x="1062" d="M41 362q0 47 21.5 65.5t64.5 18.5q86 0 86 -59q0 -109 70.5 -176.5t197.5 -67.5q270 0 271 291v907h-267q-29 0 -44 22.5t-15 57.5q0 76 59 76h361q31 0 54.5 -16.5t23.5 -44.5v-1002q0 -231 -120 -338.5t-317 -107.5q-201 0 -323.5 103t-122.5 271zM254 1778q0 37 31 53 l213 115q20 10 34 10q18 0 35 -10l213 -113q33 -18 33 -57q0 -23 -13.5 -40.5t-33.5 -17.5q-4 0 -12 2q-4 4 -9 4l-213 115l-213 -115q-8 -6 -18 -6q-18 0 -32.5 18.5t-14.5 41.5z"/>
<glyph unicode="ĵ" horiz-adv-x="415" d="M-76 -395q0 33 20.5 54.5t49.5 21.5q80 0 104.5 59t24.5 178v993q0 27 23.5 43.5t60.5 16.5t61.5 -16.5t24.5 -43.5v-993q0 -178 -69.5 -282.5t-211.5 -104.5q-88 0 -88 74zM-70 1264q0 39 31 53l213 115q20 10 35 10q18 0 35 -10l213 -113q33 -18 32 -57 q0 -23 -13 -40.5t-34 -17.5q-4 0 -12 2q-4 4 -8 4l-213 115l-213 -115q-8 -6 -19 -6q-18 0 -32.5 18.5t-14.5 41.5z"/>
<glyph unicode="Ķ" horiz-adv-x="1083" d="M145 61v1377q0 29 26 44t60.5 15t60 -15.5t25.5 -43.5v-678l549 713q18 25 51 24.5t66 -29t33 -59.5q0 -20 -15 -37l-417 -522l487 -737q10 -16 10 -31q0 -33 -31.5 -59.5t-68.5 -26.5q-41 0 -63 35l-449 674l-152 -191v-453q0 -29 -25.5 -45t-60 -16t-60.5 16t-26 45z M373 -274q0 31 26 45l240 127q16 4 20 4q25 0 42.5 -21.5t17.5 -48.5q0 -33 -29 -49l-231 -121q-12 -6 -25 -6q-25 0 -43 21.5t-18 48.5z"/>
<glyph unicode="ķ" horiz-adv-x="956" d="M123 61v1436q0 27 23.5 43t60.5 16t61.5 -16t24.5 -43v-958l467 422q18 14 37 14q31 0 58.5 -24.5t27.5 -55.5q0 -25 -19 -41l-284 -252l340 -493q10 -16 10 -31q0 -31 -31 -58.5t-63 -27.5q-29 0 -48 26l-325 478l-170 -152v-283q0 -23 -25.5 -42t-60.5 -19t-59.5 18 t-24.5 43zM303 -274q0 31 27 45l239 127q16 4 21 4q25 0 42 -21.5t17 -48.5q0 -33 -28 -49l-232 -121q-12 -6 -24 -6q-25 0 -43.5 21.5t-18.5 48.5z"/>
<glyph unicode="ĸ" horiz-adv-x="954" d="M121 61v850q0 27 23.5 43.5t60.5 16.5t61.5 -16.5t24.5 -43.5v-372l467 422q18 14 37 14q31 0 58.5 -24.5t27.5 -55.5q0 -25 -19 -41l-284 -252l340 -493q10 -16 10 -31q0 -31 -31 -58.5t-63 -27.5q-29 0 -48 26l-325 478l-170 -152v-283q0 -23 -25.5 -42t-60.5 -19 t-59.5 18t-24.5 43z"/>
<glyph unicode="Ĺ" horiz-adv-x="958" d="M145 61v1377q0 29 26 44t60.5 15t60 -15.5t25.5 -43.5v-1282h560q27 0 41 -23.5t14 -54.5t-14.5 -54.5t-40.5 -23.5h-654q-31 0 -54.5 16t-23.5 45zM356 1780q0 31 27 45l240 127q12 4 20 4q25 0 41 -21.5t16 -48.5q0 -35 -28 -49l-232 -119q-16 -8 -22 -8 q-25 0 -43.5 21.5t-18.5 48.5z"/>
<glyph unicode="ĺ" horiz-adv-x="448" d="M76 1712q0 31 26 45l240 127q12 4 20 4q25 0 41.5 -21.5t16.5 -47.5q0 -35 -29 -50l-231 -118q-16 -8 -23 -9q-25 0 -43 21.5t-18 48.5zM139 61v1436q0 27 23.5 43t60.5 16t61.5 -16t24.5 -43v-1436q0 -23 -25.5 -42t-60.5 -19t-59.5 18t-24.5 43z"/>
<glyph unicode="Ļ" horiz-adv-x="958" d="M145 61v1377q0 29 26 44t60.5 15t60 -15.5t25.5 -43.5v-1282h560q27 0 41 -23.5t14 -54.5t-14.5 -54.5t-40.5 -23.5h-654q-31 0 -54.5 16t-23.5 45zM348 -274q0 31 27 45l239 127q16 4 21 4q25 0 42 -21.5t17 -48.5q0 -33 -28 -49l-232 -121q-12 -6 -24 -6 q-25 0 -43.5 21.5t-18.5 48.5z"/>
<glyph unicode="ļ" horiz-adv-x="448" d="M55 -274q0 31 27 45l240 127q16 4 20 4q25 0 42 -21.5t17 -48.5q0 -33 -28 -49l-232 -121q-12 -6 -24 -6q-25 0 -43.5 21.5t-18.5 48.5zM139 61v1436q0 27 23.5 43t60.5 16t61.5 -16t24.5 -43v-1436q0 -23 -25.5 -42t-60.5 -19t-59.5 18t-24.5 43z"/>
<glyph unicode="Ľ" horiz-adv-x="960" d="M145 61v1377q0 29 26 44t60.5 15t60 -15.5t25.5 -43.5v-1282h560q27 0 41 -23.5t14 -54.5t-14.5 -54.5t-40.5 -23.5h-654q-31 0 -54.5 16t-23.5 45zM608 1411q0 43 31 75t76 32q43 0 74.5 -32t31.5 -75t-92 -250q-12 -27 -41 -26q-23 0 -42 13t-19 36q0 8 4 20l43 107 q-66 26 -66 100z"/>
<glyph unicode="ľ" horiz-adv-x="448" d="M139 61v1436q0 27 23.5 43t60.5 16t61.5 -16t24.5 -43v-1436q0 -23 -25.5 -42t-60.5 -19t-59.5 18t-24.5 43zM434 1411q0 43 31 75t76 32q43 0 74.5 -32t31.5 -75t-92 -250q-12 -27 -41 -26q-23 0 -42 13t-19 36q0 8 4 20l43 107q-66 26 -66 100z"/>
<glyph unicode="Ŀ" horiz-adv-x="960" d="M145 61v1377q0 29 26 44t60.5 15t60 -15.5t25.5 -43.5v-1282h560q27 0 41 -23.5t14 -54.5t-14.5 -54.5t-40.5 -23.5h-654q-31 0 -54.5 16t-23.5 45zM594 862q0 41 32.5 72t80.5 31q45 0 76.5 -31t31.5 -72t-31.5 -71.5t-76.5 -30.5q-47 0 -80 30.5t-33 71.5z"/>
<glyph unicode="ŀ" horiz-adv-x="673" d="M139 61v1436q0 27 23.5 43t60.5 16t61.5 -16t24.5 -43v-1436q0 -23 -25.5 -42t-60.5 -19t-59.5 18t-24.5 43zM440 614q0 41 33 72t80 31q45 0 77 -31t32 -72t-32 -71.5t-77 -30.5q-47 0 -80 30.5t-33 71.5z"/>
<glyph unicode="Ł" horiz-adv-x="970" d="M-2 610q0 33 27 45l133 70v713q0 29 25.5 44t60.5 15t60.5 -15.5t25.5 -43.5v-621l178 96q6 4 20 5q25 0 45.5 -25t20.5 -51q0 -35 -27 -47l-237 -127v-512h559q27 0 41 -23.5t14 -54.5t-14.5 -54.5t-40.5 -23.5h-653q-31 0 -54.5 16.5t-23.5 44.5v514l-74 -38 q-12 -6 -23 -7q-25 0 -44 25.5t-19 54.5z"/>
<glyph unicode="ł" horiz-adv-x="634" d="M33 610q0 33 24 45l168 90v752q0 27 23.5 43t60.5 16t61.5 -16t24.5 -43v-661l125 67q8 4 21 4q25 0 45 -24.5t20 -51.5q0 -33 -26 -47l-185 -98v-625q0 -23 -25.5 -42t-60.5 -19t-59.5 18.5t-24.5 42.5v533l-108 -57q-10 -6 -21 -7q-25 0 -44 25.5t-19 54.5z"/>
<glyph unicode="Ń" horiz-adv-x="1189" d="M145 61v1377q0 59 86 59q43 0 73 -25.5t58 -82.5l510 -998v1047q0 29 26 44t60.5 15t60 -15.5t25.5 -43.5v-1377q0 -29 -25.5 -45t-60.5 -16q-66 0 -108 78l-533 1030v-1047q0 -29 -25.5 -45t-60 -16t-60.5 16t-26 45zM410 1780q0 31 26 45l240 127q12 4 20 4 q25 0 41.5 -21.5t16.5 -48.5q0 -35 -29 -49l-231 -119q-16 -8 -23 -8q-25 0 -43 21.5t-18 48.5z"/>
<glyph unicode="ń" horiz-adv-x="1030" d="M121 61v850q0 27 23.5 43.5t60.5 16.5q31 0 54.5 -17.5t23.5 -42.5v-84q33 66 105.5 111t168.5 45q145 0 253 -115.5t108 -277.5v-529q0 -29 -26 -45t-61 -16q-33 0 -58 16.5t-25 44.5v529q0 92 -70 165.5t-164 73.5q-88 0 -155.5 -66.5t-67.5 -172.5v-529 q0 -23 -26.5 -42t-59.5 -19q-35 0 -59.5 18t-24.5 43zM346 1266q0 31 27 45l239 127q12 4 21 4q25 0 41 -21.5t16 -48.5q0 -35 -28 -49l-232 -119q-16 -8 -22 -8q-25 0 -43.5 21.5t-18.5 48.5z"/>
<glyph unicode="Ņ" horiz-adv-x="1189" d="M145 61v1377q0 59 86 59q43 0 73 -25.5t58 -82.5l510 -998v1047q0 29 26 44t60.5 15t60 -15.5t25.5 -43.5v-1377q0 -29 -25.5 -45t-60.5 -16q-66 0 -108 78l-533 1030v-1047q0 -29 -25.5 -45t-60 -16t-60.5 16t-26 45zM418 -274q0 31 26 45l240 127q16 4 21 4 q25 0 42 -21.5t17 -48.5q0 -33 -29 -49l-231 -121q-12 -6 -25 -6q-25 0 -43 21.5t-18 48.5z"/>
<glyph unicode="ņ" horiz-adv-x="1030" d="M121 61v850q0 27 23.5 43.5t60.5 16.5q31 0 54.5 -17.5t23.5 -42.5v-84q33 66 105.5 111t168.5 45q145 0 253 -115.5t108 -277.5v-529q0 -29 -26 -45t-61 -16q-33 0 -58 16.5t-25 44.5v529q0 92 -70 165.5t-164 73.5q-88 0 -155.5 -66.5t-67.5 -172.5v-529 q0 -23 -26.5 -42t-59.5 -19q-35 0 -59.5 18t-24.5 43zM328 -274q0 31 26 45l240 127q16 4 20 4q25 0 42.5 -21.5t17.5 -48.5q0 -33 -29 -49l-231 -121q-12 -6 -25 -6q-25 0 -43 21.5t-18 48.5z"/>
<glyph unicode="Ň" horiz-adv-x="1189" d="M145 61v1377q0 59 86 59q43 0 73 -25.5t58 -82.5l510 -998v1047q0 29 26 44t60.5 15t60 -15.5t25.5 -43.5v-1377q0 -29 -25.5 -45t-60.5 -16q-66 0 -108 78l-533 1030v-1047q0 -29 -25.5 -45t-60 -16t-60.5 16t-26 45zM315 1956q0 20 12.5 37.5t30.5 17.5q16 0 29 -12 l205 -172l207 172q10 12 28.5 12t30.5 -17.5t12 -37.5q0 -35 -30 -55l-207 -170q-23 -18 -41 -19q-20 0 -39 19l-209 170q-29 20 -29 55z"/>
<glyph unicode="ň" horiz-adv-x="1030" d="M121 61v850q0 27 23.5 43.5t60.5 16.5q31 0 54.5 -17.5t23.5 -42.5v-84q33 66 105.5 111t168.5 45q145 0 253 -115.5t108 -277.5v-529q0 -29 -26 -45t-61 -16q-33 0 -58 16.5t-25 44.5v529q0 92 -70 165.5t-164 73.5q-88 0 -155.5 -66.5t-67.5 -172.5v-529 q0 -23 -26.5 -42t-59.5 -19q-35 0 -59.5 18t-24.5 43zM229 1442q0 20 12.5 37.5t30.5 17.5q16 0 29 -12l205 -172l207 172q10 12 28.5 12t30.5 -17.5t12 -37.5q0 -35 -30 -56l-207 -169q-23 -18 -41 -19q-20 0 -39 19l-209 169q-29 21 -29 56z"/>
<glyph unicode="Ŋ" horiz-adv-x="1191" d="M145 61v1377q0 59 86 59q43 0 73 -25.5t58 -82.5l510 -998v1047q0 29 26 44t60.5 15t60 -15.5t25.5 -43.5v-1520q0 -178 -69.5 -282.5t-210.5 -104.5q-88 0 -88 74q0 33 20.5 54.5t48.5 21.5q78 0 102.5 59t24.5 178v88q0 29 -22 72l-533 1030v-1047q0 -29 -25.5 -45 t-60 -16t-60.5 16t-26 45z"/>
<glyph unicode="ŋ" horiz-adv-x="1030" d="M121 61v850q0 27 23.5 43.5t60.5 16.5q31 0 54.5 -17.5t23.5 -42.5v-84q33 66 105.5 111t168.5 45q145 0 253 -115.5t108 -277.5v-672q0 -178 -70 -282.5t-211 -104.5q-88 0 -88 74q0 33 20.5 54.5t48.5 21.5q78 0 104 59t26 178v672q0 92 -70 165.5t-164 73.5 q-88 0 -155.5 -66.5t-67.5 -172.5v-529q0 -23 -26.5 -42t-59.5 -19q-35 0 -59.5 18t-24.5 43z"/>
<glyph unicode="Ō" horiz-adv-x="1144" d="M131 434v617q0 231 120 338.5t320.5 107.5t321.5 -107.5t121 -338.5v-617q0 -231 -121 -338.5t-321.5 -107.5t-320.5 107.5t-120 338.5zM295 1861.5q0 26.5 16.5 45t42.5 18.5h434q23 0 42.5 -18.5t19.5 -45t-18.5 -44t-43.5 -17.5h-434q-27 0 -43 17.5t-16 44zM303 434 q0 -291 268 -291q129 0 200 73t71 218v617q0 145 -71 217.5t-200 72.5q-268 0 -268 -290v-617z"/>
<glyph unicode="ō" horiz-adv-x="976" d="M84 381v209q0 158 120 275.5t283.5 117.5t284.5 -116.5t121 -276.5v-209q0 -156 -122 -276.5t-283.5 -120.5t-282.5 119.5t-121 277.5zM211 1347.5q0 26.5 16.5 45t42.5 18.5h435q25 0 43 -19.5t18 -43.5q0 -27 -18.5 -44.5t-42.5 -17.5h-435q-27 0 -43 17.5t-16 44z M254 381q0 -96 69.5 -170t163.5 -74q96 0 166 75t70 169v209q0 92 -69.5 165.5t-166 73.5t-165 -73.5t-68.5 -165.5v-209z"/>
<glyph unicode="Ŏ" horiz-adv-x="1144" d="M131 434v617q0 231 120 338.5t320.5 107.5t321.5 -107.5t121 -338.5v-617q0 -231 -121 -338.5t-321.5 -107.5t-320.5 107.5t-120 338.5zM303 434q0 -291 268 -291q129 0 200 73t71 218v617q0 145 -71 217.5t-200 72.5q-268 0 -268 -290v-617zM324 1980h104 q0 -68 43 -114.5t100.5 -46.5t100.5 47t43 114h104q0 -98 -74.5 -172.5t-173 -74.5t-173 74.5t-74.5 172.5z"/>
<glyph unicode="ŏ" horiz-adv-x="976" d="M84 381v209q0 158 120 275.5t283.5 117.5t284.5 -116.5t121 -276.5v-209q0 -156 -122 -276.5t-283.5 -120.5t-282.5 119.5t-121 277.5zM240 1466h104q0 -68 43 -114.5t100.5 -46.5t100.5 47t43 114h104q0 -98 -74.5 -172.5t-173 -74.5t-173 74.5t-74.5 172.5zM254 381 q0 -96 69.5 -170t163.5 -74q96 0 166 75t70 169v209q0 92 -69.5 165.5t-166 73.5t-165 -73.5t-68.5 -165.5v-209z"/>
<glyph unicode="Ő" horiz-adv-x="1144" d="M131 434v617q0 231 120 338.5t320.5 107.5t321.5 -107.5t121 -338.5v-617q0 -231 -121 -338.5t-321.5 -107.5t-320.5 107.5t-120 338.5zM303 434q0 -291 268 -291q129 0 200 73t71 218v617q0 145 -71 217.5t-200 72.5q-268 0 -268 -290v-617zM342 1765.5q0 20.5 16 30.5 l189 152q10 10 26 10q23 0 40.5 -18.5t17.5 -38.5q0 -23 -19 -35l-180 -146q-14 -12 -29 -12q-23 0 -42 18.5t-19 39zM653 1765.5q0 20.5 17 30.5l190 152q8 10 27 10q20 0 37.5 -18.5t17.5 -38.5q0 -23 -18 -35l-181 -146q-12 -12 -28 -12q-23 0 -42.5 18.5t-19.5 39z"/>
<glyph unicode="ő" horiz-adv-x="976" d="M84 381v209q0 158 120 275.5t283.5 117.5t284.5 -116.5t121 -276.5v-209q0 -156 -122 -276.5t-283.5 -120.5t-282.5 119.5t-121 277.5zM246 1253.5q0 20.5 16 30.5l189 152q10 10 26 10q23 0 40.5 -18.5t17.5 -38.5q0 -23 -19 -35l-180 -146q-16 -12 -29 -12 q-23 0 -42 18.5t-19 39zM254 381q0 -96 69.5 -170t163.5 -74q96 0 166 75t70 169v209q0 92 -69.5 165.5t-166 73.5t-165 -73.5t-68.5 -165.5v-209zM557 1253.5q0 20.5 16 30.5l191 152q8 10 27 10q20 0 37.5 -18.5t17.5 -38.5q0 -23 -19 -35l-180 -146q-12 -12 -29 -12 q-23 0 -42 18.5t-19 39z"/>
<glyph unicode="Œ" horiz-adv-x="1714" d="M131 434v617q0 231 112.5 338.5t303.5 107.5q98 0 183 -38t130 -111v88q0 29 23.5 45t54.5 16h676q29 0 44 -22.5t15 -53.5q0 -35 -15.5 -57.5t-43.5 -22.5h-600v-520h284q29 0 44.5 -21.5t15.5 -51.5q0 -27 -15.5 -48.5t-44.5 -21.5h-284v-522h600q29 0 44 -22.5 t15 -57.5q0 -31 -15.5 -53.5t-43.5 -22.5h-676q-31 0 -54.5 16.5t-23.5 44.5v76q-90 -150 -313 -149q-190 0 -303 107.5t-113 338.5zM303 434q0 -291 268 -291q129 0 200 73t71 218v617q0 145 -71 217.5t-200 72.5q-268 0 -268 -290v-617z"/>
<glyph unicode="œ" horiz-adv-x="1591" d="M84 381v209q0 158 120 275.5t283 117.5q100 0 187.5 -51t138.5 -135q51 86 135 136t182 50q160 0 277 -107.5t117 -267.5q0 -59 -13.5 -96t-43 -52.5t-55.5 -19.5t-71 -4h-448v-61q0 -113 81 -180.5t214 -67.5q66 0 115 20.5t78.5 40t48.5 19.5q29 0 50 -25.5t21 -54.5 q0 -45 -95 -94t-228 -49q-121 0 -216.5 50t-148.5 138q-53 -86 -140 -137t-186 -51q-162 0 -282.5 119.5t-120.5 277.5zM254 381q0 -96 69.5 -170t163.5 -74q96 0 166 75t70 169v209q0 92 -69.5 165.5t-166 73.5t-165 -73.5t-68.5 -165.5v-209zM893 551h379q53 0 71.5 13.5 t18.5 51.5q0 92 -67.5 162t-166 70t-167 -63.5t-68.5 -155.5v-78z"/>
<glyph unicode="Ŕ" horiz-adv-x="1112" d="M145 61v1377q0 25 17.5 41t44.5 18h375q205 0 329.5 -95t124.5 -315q0 -338 -305 -399l303 -575q8 -14 8 -29q0 -33 -32.5 -60.5t-69.5 -27.5q-43 0 -78 67l-309 601h-236v-603q0 -29 -25.5 -45t-60 -16t-60.5 16t-26 45zM317 807h265q283 0 282 268q0 266 -282 266h-265 v-534zM438 1780q0 31 27 45l240 127q12 4 20 4q25 0 41 -21.5t16 -48.5q0 -35 -28 -49l-232 -119q-16 -8 -22 -8q-25 0 -43.5 21.5t-18.5 48.5z"/>
<glyph unicode="ŕ" horiz-adv-x="704" d="M121 61v850q0 27 23.5 43.5t60.5 16.5q33 0 55.5 -16.5t22.5 -43.5v-96q37 70 108.5 119t159.5 49h70q27 0 46 -23.5t19 -54.5t-19.5 -53.5t-45.5 -22.5h-70q-104 0 -182 -83.5t-78 -217.5v-467q0 -23 -25.5 -42t-60.5 -19t-59.5 18t-24.5 43zM190 1266q0 31 27 45 l240 127q12 4 20 4q25 0 41.5 -21.5t16.5 -48.5q0 -35 -29 -49l-232 -119q-16 -8 -22 -8q-25 0 -43.5 21.5t-18.5 48.5z"/>
<glyph unicode="Ŗ" horiz-adv-x="1112" d="M145 61v1377q0 25 17.5 41t44.5 18h375q205 0 329.5 -95t124.5 -315q0 -338 -305 -399l303 -575q8 -14 8 -29q0 -33 -32.5 -60.5t-69.5 -27.5q-43 0 -78 67l-309 601h-236v-603q0 -29 -25.5 -45t-60 -16t-60.5 16t-26 45zM317 807h265q283 0 282 268q0 266 -282 266h-265 v-534zM362 -274q0 31 27 45l240 127q16 4 20 4q25 0 42.5 -21.5t17.5 -48.5q0 -33 -29 -49l-231 -121q-12 -6 -25 -6q-25 0 -43.5 21.5t-18.5 48.5z"/>
<glyph unicode="ŗ" horiz-adv-x="704" d="M0 -274q0 31 27 45l239 127q16 4 21 4q25 0 42 -21.5t17 -48.5q0 -33 -29 -49l-231 -121q-12 -6 -25 -6q-25 0 -43 21.5t-18 48.5zM121 61v850q0 27 23.5 43.5t60.5 16.5q33 0 55.5 -16.5t22.5 -43.5v-96q37 70 108.5 119t159.5 49h70q27 0 46 -23.5t19 -54.5 t-19.5 -53.5t-45.5 -22.5h-70q-104 0 -182 -83.5t-78 -217.5v-467q0 -23 -25.5 -42t-60.5 -19t-59.5 18t-24.5 43z"/>
<glyph unicode="Ř" horiz-adv-x="1112" d="M145 61v1377q0 25 17.5 41t44.5 18h375q205 0 329.5 -95t124.5 -315q0 -338 -305 -399l303 -575q8 -14 8 -29q0 -33 -32.5 -60.5t-69.5 -27.5q-43 0 -78 67l-309 601h-236v-603q0 -29 -25.5 -45t-60 -16t-60.5 16t-26 45zM287 1956q0 20 12 37.5t31 17.5q16 0 28 -12 l205 -172l207 172q10 12 28.5 12t31 -17.5t12.5 -37.5q0 -35 -31 -55l-207 -170q-23 -18 -41 -19q-20 0 -39 19l-209 170q-28 20 -28 55zM317 807h265q283 0 282 268q0 266 -282 266h-265v-534z"/>
<glyph unicode="ř" horiz-adv-x="702" d="M70 1442q0 20 12 37.5t31 17.5q16 0 28 -12l205 -172l207 172q10 12 28.5 12t31 -17.5t12.5 -37.5q0 -35 -31 -56l-207 -169q-23 -18 -41 -19q-20 0 -39 19l-209 169q-28 21 -28 56zM121 61v850q0 27 23.5 43.5t60.5 16.5q33 0 55.5 -16.5t22.5 -43.5v-96 q37 70 108.5 119t159.5 49h70q27 0 46 -23.5t19 -54.5t-19.5 -53.5t-45.5 -22.5h-70q-104 0 -182 -83.5t-78 -217.5v-467q0 -23 -25.5 -42t-60.5 -19t-59.5 18t-24.5 43z"/>
<glyph unicode="Ś" horiz-adv-x="1028" d="M68 215q0 33 23.5 63.5t51.5 30.5q18 0 47 -25.5t60 -57t96.5 -57.5t147.5 -26q133 0 208.5 64.5t75.5 189.5q0 113 -69.5 183.5t-168 107.5t-197.5 79t-169 129t-70 224q0 106 41 185t110 119t142.5 58.5t157.5 18.5q127 0 242.5 -35.5t115.5 -99.5q0 -29 -20.5 -61.5 t-52.5 -32.5q-8 0 -94.5 39t-190.5 39q-125 0 -202 -51.5t-77 -161.5q0 -94 70 -152.5t169 -93.5t197.5 -80t168 -144.5t69.5 -252.5q0 -213 -122.5 -321.5t-325.5 -108.5q-182 0 -308 77.5t-126 153.5zM356 1780q0 31 27 45l240 127q12 4 20 4q25 0 41 -21.5t16 -48.5 q0 -35 -28 -49l-232 -119q-16 -8 -22 -8q-25 0 -43.5 21.5t-18.5 48.5z"/>
<glyph unicode="ś" horiz-adv-x="802" d="M61 139q0 27 17.5 52.5t42.5 25.5q16 0 47 -24.5t88 -48t135 -23.5q102 0 148.5 37t46.5 92q0 68 -51.5 107.5t-125 60t-147.5 45t-125 82t-51 151.5q0 117 83 202t253 85q109 0 199 -34t90 -77q0 -25 -19.5 -55.5t-48.5 -30.5q-8 0 -78.5 30t-140.5 30q-94 0 -140 -44 t-46 -100q0 -57 51 -89.5t125.5 -51t148.5 -45.5t125 -91.5t51 -166.5q0 -127 -90 -200.5t-252 -73.5q-139 0 -237.5 50t-98.5 105zM233 1266q0 31 27 45l240 127q12 4 20 4q25 0 41.5 -21.5t16.5 -48.5q0 -35 -29 -49l-232 -119q-16 -8 -22 -8q-25 0 -43.5 21.5t-18.5 48.5 z"/>
<glyph unicode="Ŝ" horiz-adv-x="1028" d="M68 215q0 33 23.5 63.5t51.5 30.5q18 0 47 -25.5t60 -57t96.5 -57.5t147.5 -26q133 0 208.5 64.5t75.5 189.5q0 113 -69.5 183.5t-168 107.5t-197.5 79t-169 129t-70 224q0 106 41 185t110 119t142.5 58.5t157.5 18.5q127 0 242.5 -35.5t115.5 -99.5q0 -29 -20.5 -61.5 t-52.5 -32.5q-8 0 -94.5 39t-190.5 39q-125 0 -202 -51.5t-77 -161.5q0 -94 70 -152.5t169 -93.5t197.5 -80t168 -144.5t69.5 -252.5q0 -213 -122.5 -321.5t-325.5 -108.5q-182 0 -308 77.5t-126 153.5zM227 1778q0 37 31 53l213 115q20 10 35 10q18 0 35 -10l213 -113 q33 -18 32 -57q0 -23 -14 -40.5t-33 -17.5q-4 0 -12 2q-4 4 -8 4l-213 115l-213 -115q-10 -6 -19 -6q-18 0 -32.5 18.5t-14.5 41.5z"/>
<glyph unicode="ŝ" horiz-adv-x="802" d="M61 139q0 27 17.5 52.5t42.5 25.5q16 0 47 -24.5t88 -48t135 -23.5q102 0 148.5 37t46.5 92q0 68 -51.5 107.5t-125 60t-147.5 45t-125 82t-51 151.5q0 117 83 202t253 85q109 0 199 -34t90 -77q0 -25 -19.5 -55.5t-48.5 -30.5q-8 0 -78.5 30t-140.5 30q-94 0 -140 -44 t-46 -100q0 -57 51 -89.5t125.5 -51t148.5 -45.5t125 -91.5t51 -166.5q0 -127 -90 -200.5t-252 -73.5q-139 0 -237.5 50t-98.5 105zM115 1264q0 39 30 53l213 115q20 10 35 10q18 0 35 -10l213 -113q33 -18 33 -57q0 -23 -13.5 -40.5t-33.5 -17.5q-4 0 -13 2q-4 4 -8 4 l-213 115l-213 -115q-8 -6 -18 -6q-18 0 -32.5 18.5t-14.5 41.5z"/>
<glyph unicode="Ş" horiz-adv-x="1028" d="M68 215q0 33 23.5 63.5t51.5 30.5q18 0 47 -25.5t60 -57t96.5 -57.5t147.5 -26q133 0 208.5 64.5t75.5 189.5q0 113 -69.5 183.5t-168 107.5t-197.5 79t-169 129t-70 224q0 106 41 185t110 119t142.5 58.5t157.5 18.5q127 0 242.5 -35.5t115.5 -99.5q0 -29 -20.5 -61.5 t-52.5 -32.5q-8 0 -94.5 39t-190.5 39q-125 0 -202 -51.5t-77 -161.5q0 -94 70 -152.5t169 -93.5t197.5 -80t168 -144.5t69.5 -252.5q0 -186 -95 -293t-259 -131l-29 -109q98 -2 147.5 -45t49.5 -104q0 -66 -48 -116t-143 -50q-55 0 -109 14t-54 41q0 14 10 35.5t26 21.5 q4 0 40 -14t75 -14q106 0 107 76q0 74 -121 84l-88 6l43 168q-182 0 -308 77.5t-126 153.5z"/>
<glyph unicode="ş" horiz-adv-x="802" d="M61 139q0 27 17.5 52.5t42.5 25.5q16 0 47 -24.5t88 -48t135 -23.5q102 0 148.5 37t46.5 92q0 68 -51.5 107.5t-125 60t-147.5 45t-125 82t-51 151.5q0 117 83 202t253 85q109 0 199 -34t90 -77q0 -25 -19.5 -55.5t-48.5 -30.5q-8 0 -78.5 30t-140.5 30q-94 0 -140 -44 t-46 -100q0 -57 51 -89.5t125.5 -51t148.5 -45.5t125 -91.5t51 -166.5q0 -113 -71.5 -184.5t-202.5 -85.5l-29 -107q98 -2 147.5 -45t49.5 -104q0 -66 -48 -116t-143 -50q-55 0 -109 14t-54 41q0 14 10 35.5t26 21.5q4 0 40 -14t75 -14q106 0 107 76q0 74 -121 84l-88 6 l43 168q-131 6 -220.5 54t-89.5 101z"/>
<glyph unicode="Š" horiz-adv-x="1028" d="M68 215q0 33 23.5 63.5t51.5 30.5q18 0 47 -25.5t60 -57t96.5 -57.5t147.5 -26q133 0 208.5 64.5t75.5 189.5q0 113 -69.5 183.5t-168 107.5t-197.5 79t-169 129t-70 224q0 106 41 185t110 119t142.5 58.5t157.5 18.5q127 0 242.5 -35.5t115.5 -99.5q0 -29 -20.5 -61.5 t-52.5 -32.5q-8 0 -94.5 39t-190.5 39q-125 0 -202 -51.5t-77 -161.5q0 -94 70 -152.5t169 -93.5t197.5 -80t168 -144.5t69.5 -252.5q0 -213 -122.5 -321.5t-325.5 -108.5q-182 0 -308 77.5t-126 153.5zM229 1956q0 20 12.5 37.5t30.5 17.5q16 0 29 -12l205 -172l207 172 q10 12 28.5 12t30.5 -17.5t12 -37.5q0 -35 -30 -55l-207 -170q-23 -18 -41 -19q-20 0 -39 19l-209 170q-29 20 -29 55z"/>
<glyph unicode="š" horiz-adv-x="802" d="M61 139q0 27 17.5 52.5t42.5 25.5q16 0 47 -24.5t88 -48t135 -23.5q102 0 148.5 37t46.5 92q0 68 -51.5 107.5t-125 60t-147.5 45t-125 82t-51 151.5q0 117 83 202t253 85q109 0 199 -34t90 -77q0 -25 -19.5 -55.5t-48.5 -30.5q-8 0 -78.5 30t-140.5 30q-94 0 -140 -44 t-46 -100q0 -57 51 -89.5t125.5 -51t148.5 -45.5t125 -91.5t51 -166.5q0 -127 -90 -200.5t-252 -73.5q-139 0 -237.5 50t-98.5 105zM119 1442q0 20 12 37.5t31 17.5q16 0 28 -12l205 -172l207 172q10 12 28.5 12t31 -17.5t12.5 -37.5q0 -35 -31 -56l-207 -169 q-23 -18 -41 -19q-20 0 -39 19l-209 169q-28 21 -28 56z"/>
<glyph unicode="Ţ" d="M27 1419q0 31 16 54.5t45 23.5h834q29 0 45 -23.5t16 -54.5q0 -33 -16.5 -57.5t-44.5 -24.5h-330v-1276q0 -29 -25.5 -45t-60.5 -16t-60.5 16.5t-25.5 44.5v1276h-332q-29 0 -45 23.5t-16 58.5zM328 -274q0 31 26 45l240 127q16 4 20 4q25 0 42.5 -21.5t17.5 -48.5 q0 -33 -29 -49l-231 -121q-12 -6 -25 -6q-25 0 -43 21.5t-18 48.5z"/>
<glyph unicode="ţ" horiz-adv-x="634" d="M117 309v1055q0 25 26.5 42t57.5 17q33 0 59.5 -17t26.5 -42v-393h258q23 0 37 -20.5t14 -47t-14.5 -46t-36.5 -19.5h-258v-529q0 -88 37.5 -123.5t132.5 -35.5h63q35 0 54.5 -22t19.5 -52.5t-20.5 -53t-53.5 -22.5h-63q-340 0 -340 309zM131 -274q0 31 27 45l239 127 q16 4 21 4q25 0 42 -21.5t17 -48.5q0 -33 -28 -49l-232 -121q-12 -6 -24 -6q-25 0 -43.5 21.5t-18.5 48.5z"/>
<glyph unicode="Ť" d="M27 1419q0 31 16 54.5t45 23.5h834q29 0 45 -23.5t16 -54.5q0 -33 -16.5 -57.5t-44.5 -24.5h-330v-1276q0 -29 -25.5 -45t-60.5 -16t-60.5 16.5t-25.5 44.5v1276h-332q-29 0 -45 23.5t-16 58.5zM225 1956q0 20 12.5 37.5t30.5 17.5q16 0 29 -12l205 -172l207 172 q10 12 28.5 12t30.5 -17.5t12 -37.5q0 -35 -30 -55l-207 -170q-23 -18 -41 -19q-20 0 -39 19l-209 170q-29 20 -29 55z"/>
<glyph unicode="ť" horiz-adv-x="634" d="M117 309v1055q0 25 26.5 42t57.5 17q33 0 59.5 -17t26.5 -42v-393h258q23 0 37 -20.5t14 -47t-14.5 -46t-36.5 -19.5h-258v-529q0 -88 37.5 -123.5t132.5 -35.5h63q35 0 54.5 -22t19.5 -52.5t-20.5 -53t-53.5 -22.5h-63q-340 0 -340 309zM406 1434q0 43 30.5 74.5 t75.5 31.5q43 0 74.5 -31.5t31.5 -74.5t-92 -250q-12 -27 -41 -27q-23 0 -42 13.5t-19 35.5q0 8 4 21l43 106q-65 27 -65 101z"/>
<glyph unicode="Ŧ" horiz-adv-x="1015" d="M29 1419q0 31 16 54.5t45 23.5h834q29 0 45 -23.5t16 -54.5q0 -33 -16.5 -57.5t-44.5 -24.5h-330v-522h235q25 0 39.5 -19.5t14.5 -45.5q0 -29 -14.5 -49.5t-39.5 -20.5h-235v-619q0 -29 -25.5 -45t-60.5 -16t-60.5 16.5t-25.5 44.5v619h-238q-25 0 -39 19.5t-14 48.5 q0 27 14.5 47t38.5 20h238v522h-332q-29 0 -45 23.5t-16 58.5z"/>
<glyph unicode="ŧ" horiz-adv-x="641" d="M117 309v1055q0 25 26.5 42t57.5 17q33 0 59.5 -17t26.5 -42v-393h258q23 0 37 -20.5t14 -47t-14.5 -46t-36.5 -19.5h-258v-193h258q23 0 37 -20.5t14 -47t-14.5 -46t-36.5 -19.5h-258v-203q0 -88 37.5 -123.5t132.5 -35.5h63q35 0 54.5 -22t19.5 -52.5t-20.5 -53 t-53.5 -22.5h-63q-340 0 -340 309z"/>
<glyph unicode="Ũ" horiz-adv-x="1173" d="M139 434v1004q0 29 25.5 44t60.5 15t60.5 -15.5t25.5 -43.5v-1004q0 -291 275 -291q133 0 204.5 73t71.5 218v1004q0 59 86 59q35 0 60.5 -15.5t25.5 -43.5v-1004q0 -231 -123 -338.5t-325.5 -107.5t-324.5 107.5t-122 338.5zM254 1817q0 59 60.5 92t117.5 33 q55 0 139 -34t138 -34q51 0 94 27.5t55 27.5q23 0 36 -19.5t13 -37.5q0 -63 -57 -93t-115 -30q-61 0 -143 34t-135 34q-51 0 -97.5 -30t-58.5 -30q-23 0 -35 20t-12 40z"/>
<glyph unicode="ũ" horiz-adv-x="1034" d="M113 377v532q0 25 25.5 43.5t60.5 18.5q33 0 58.5 -19.5t25.5 -42.5v-532q0 -92 69.5 -166t165.5 -74q94 0 164 73t70 167v534q0 23 25.5 41.5t60.5 18.5q37 0 60.5 -17.5t23.5 -42.5v-534q0 -158 -120 -275.5t-284 -117.5q-166 0 -285.5 117.5t-119.5 275.5zM190 1303 q0 59 60.5 91.5t118.5 32.5q55 0 139 -33.5t137 -33.5q51 0 94 27.5t56 27.5q23 0 36 -19.5t13 -37.5q0 -63 -57.5 -93t-114.5 -30q-61 0 -143.5 34t-135.5 34q-51 0 -97 -30t-58 -30q-23 0 -35.5 20t-12.5 40z"/>
<glyph unicode="Ū" horiz-adv-x="1173" d="M139 434v1004q0 29 25.5 44t60.5 15t60.5 -15.5t25.5 -43.5v-1004q0 -291 275 -291q133 0 204.5 73t71.5 218v1004q0 59 86 59q35 0 60.5 -15.5t25.5 -43.5v-1004q0 -231 -123 -338.5t-325.5 -107.5t-324.5 107.5t-122 338.5zM307 1861.5q0 26.5 16.5 45t43.5 18.5h434 q23 0 42 -18.5t19 -45t-18.5 -44t-42.5 -17.5h-434q-27 0 -43.5 17.5t-16.5 44z"/>
<glyph unicode="ū" horiz-adv-x="1034" d="M113 377v532q0 25 25.5 43.5t60.5 18.5q33 0 58.5 -19.5t25.5 -42.5v-532q0 -92 69.5 -166t165.5 -74q94 0 164 73t70 167v534q0 23 25.5 41.5t60.5 18.5q37 0 60.5 -17.5t23.5 -42.5v-534q0 -158 -120 -275.5t-284 -117.5q-166 0 -285.5 117.5t-119.5 275.5zM242 1347.5 q0 26.5 16 45t43 18.5h434q23 0 42.5 -19.5t19.5 -43.5q0 -27 -18.5 -44.5t-43.5 -17.5h-434q-27 0 -43 17.5t-16 44z"/>
<glyph unicode="Ŭ" horiz-adv-x="1173" d="M139 434v1004q0 29 25.5 44t60.5 15t60.5 -15.5t25.5 -43.5v-1004q0 -291 275 -291q133 0 204.5 73t71.5 218v1004q0 59 86 59q35 0 60.5 -15.5t25.5 -43.5v-1004q0 -231 -123 -338.5t-325.5 -107.5t-324.5 107.5t-122 338.5zM334 1980h104q0 -68 43 -114.5t100.5 -46.5 t100.5 47t43 114h104q0 -98 -74.5 -172.5t-173 -74.5t-173 74.5t-74.5 172.5z"/>
<glyph unicode="ŭ" horiz-adv-x="1034" d="M113 377v532q0 25 25.5 43.5t60.5 18.5q33 0 58.5 -19.5t25.5 -42.5v-532q0 -92 69.5 -166t165.5 -74q94 0 164 73t70 167v534q0 23 25.5 41.5t60.5 18.5q37 0 60.5 -17.5t23.5 -42.5v-534q0 -158 -120 -275.5t-284 -117.5q-166 0 -285.5 117.5t-119.5 275.5zM268 1466 h105q0 -68 43 -114.5t100 -46.5t100 47t43 114h105q0 -98 -75 -172.5t-173 -74.5t-173 74.5t-75 172.5z"/>
<glyph unicode="Ů" horiz-adv-x="1173" d="M139 434v1004q0 29 25.5 44t60.5 15t60.5 -15.5t25.5 -43.5v-1004q0 -291 275 -291q133 0 204.5 73t71.5 218v1004q0 59 86 59q35 0 60.5 -15.5t25.5 -43.5v-1004q0 -231 -123 -338.5t-325.5 -107.5t-324.5 107.5t-122 338.5zM393 1892q0 78 56.5 136.5t136.5 58.5 q76 0 134 -59.5t58 -135.5q0 -78 -58 -138t-134 -60q-80 0 -136.5 59t-56.5 139zM471 1892q0 -45 34 -82.5t81 -37.5q45 0 78.5 37.5t33.5 82.5q0 43 -33.5 78t-78.5 35q-47 0 -81 -36t-34 -77z"/>
<glyph unicode="ů" horiz-adv-x="1034" d="M113 377v532q0 25 25.5 43.5t60.5 18.5q33 0 58.5 -19.5t25.5 -42.5v-532q0 -92 69.5 -166t165.5 -74q94 0 164 73t70 167v534q0 23 25.5 41.5t60.5 18.5q37 0 60.5 -17.5t23.5 -42.5v-534q0 -158 -120 -275.5t-284 -117.5q-166 0 -285.5 117.5t-119.5 275.5zM324 1378 q0 78 56 136.5t136 58.5q76 0 134.5 -59.5t58.5 -135.5q0 -78 -58.5 -138t-134.5 -60q-80 0 -136 59t-56 139zM401 1378q0 -45 34 -83t81 -38q45 0 79 38t34 83q0 43 -34 78t-79 35q-47 0 -81 -36t-34 -77z"/>
<glyph unicode="Ű" horiz-adv-x="1173" d="M139 434v1004q0 29 25.5 44t60.5 15t60.5 -15.5t25.5 -43.5v-1004q0 -291 275 -291q133 0 204.5 73t71.5 218v1004q0 59 86 59q35 0 60.5 -15.5t25.5 -43.5v-1004q0 -231 -123 -338.5t-325.5 -107.5t-324.5 107.5t-122 338.5zM367 1765.5q0 20.5 16 30.5l188 152 q10 10 27 10q23 0 40 -18.5t17 -38.5q0 -23 -18 -35l-180 -146q-14 -12 -29 -12q-23 0 -42 18.5t-19 39zM678 1765.5q0 20.5 16 30.5l191 152q8 10 26 10q20 0 38 -18.5t18 -38.5q0 -23 -19 -35l-180 -146q-12 -12 -29 -12q-23 0 -42 18.5t-19 39z"/>
<glyph unicode="ű" horiz-adv-x="1034" d="M113 377v532q0 25 25.5 43.5t60.5 18.5q33 0 58.5 -19.5t25.5 -42.5v-532q0 -92 69.5 -166t165.5 -74q94 0 164 73t70 167v534q0 23 25.5 41.5t60.5 18.5q37 0 60.5 -17.5t23.5 -42.5v-534q0 -158 -120 -275.5t-284 -117.5q-166 0 -285.5 117.5t-119.5 275.5zM285 1251 q0 20 16 31l188 152q10 10 27 10q23 0 40 -18.5t17 -39.5q0 -23 -18 -34l-180 -146q-14 -12 -29 -12q-23 0 -42 17t-19 40zM596 1251q0 20 16 31l191 152q8 10 26 10q20 0 38 -18.5t18 -39.5q0 -23 -19 -34l-180 -146q-12 -12 -29 -12q-23 0 -42 17t-19 40z"/>
<glyph unicode="Ų" horiz-adv-x="1173" d="M139 434v1004q0 29 25.5 44t60.5 15t60.5 -15.5t25.5 -43.5v-1004q0 -291 275 -291q133 0 204.5 73t71.5 218v1004q0 59 86 59q35 0 60.5 -15.5t25.5 -43.5v-1004q0 -346 -282 -426q-150 -117 -150 -250q0 -92 125 -92q41 0 41 -45q0 -39 -53 -39q-92 0 -150.5 41 t-58.5 121q0 131 110 246q-6 0 -16 -1t-14 -1q-203 0 -325 107.5t-122 338.5z"/>
<glyph unicode="ų" horiz-adv-x="1034" d="M113 377v532q0 25 25.5 43.5t60.5 18.5q33 0 58.5 -19.5t25.5 -42.5v-532q0 -92 69.5 -166t165.5 -74q94 0 164 73t70 167v534q0 23 25.5 41.5t60.5 18.5q37 0 60.5 -17.5t23.5 -42.5v-534q0 -123 -78 -227.5t-197 -145.5q-145 -117 -145 -246q0 -92 125 -92q41 0 41 -45 q0 -39 -54 -39q-92 0 -150 41t-58 121q0 129 104 240q-164 2 -280.5 119.5t-116.5 273.5z"/>
<glyph unicode="Ŵ" horiz-adv-x="1665" d="M35 1427q0 29 33.5 49.5t70.5 20.5q51 0 64 -39l346 -1216l194 749q14 53 91 53q72 0 86 -53l196 -749l344 1216q12 39 66 39q37 0 69.5 -20.5t32.5 -49.5q0 -12 -2 -18l-403 -1362q-18 -59 -107 -59q-92 0 -106 59l-176 676l-179 -676q-16 -59 -104 -59t-107 59 l-405 1362q-4 12 -4 18zM553 1778q0 37 31 53l213 115q20 10 34 10q18 0 35 -10l213 -113q33 -18 33 -57q0 -23 -13.5 -40.5t-33.5 -17.5q-4 0 -12 2q-4 4 -9 4l-213 115l-213 -115q-8 -6 -18 -6q-18 0 -32.5 18.5t-14.5 41.5z"/>
<glyph unicode="ŵ" horiz-adv-x="1382" d="M29 901q0 31 33.5 52.5t70.5 21.5q43 0 55 -33l248 -688l193 620q14 41 63 41q51 0 66 -41l188 -626l250 694q10 33 53 33q37 0 72 -21.5t35 -52.5q0 -16 -8 -33l-320 -850q-14 -37 -67 -36q-55 0 -70 36l-199 603l-194 -596q-14 -43 -74 -43q-53 0 -70 43l-317 843 q-8 25 -8 33zM412 1264q0 39 30 53l213 115q20 10 35 10q18 0 35 -10l213 -113q33 -18 33 -57q0 -23 -14.5 -40.5t-32.5 -17.5q-4 0 -13 2q-4 4 -8 4l-213 115l-213 -115q-10 -6 -18 -6q-18 0 -32.5 18.5t-14.5 41.5z"/>
<glyph unicode="Ŷ" horiz-adv-x="1116" d="M35 1425q0 31 33.5 51.5t68.5 20.5q37 0 62 -45l360 -702l359 702q25 45 61.5 45t69 -20.5t32.5 -51.5q0 -16 -8 -34l-424 -791q-4 -6 -4 -20v-519q0 -29 -25.5 -45t-60.5 -16t-60.5 16.5t-25.5 44.5v519q0 10 -6 20l-424 791q-8 18 -8 34zM279 1778q0 37 30 53l213 115 q20 10 35 10q18 0 35 -10l213 -113q33 -18 33 -57q0 -23 -13.5 -40.5t-33.5 -17.5q-4 0 -13 2q-4 4 -8 4l-213 115l-213 -115q-8 -6 -18 -6q-18 0 -32.5 18.5t-14.5 41.5z"/>
<glyph unicode="ŷ" horiz-adv-x="894" d="M25 901q0 33 36.5 57.5t73.5 24.5q43 0 55 -35l271 -712l244 712q14 35 53 35q35 0 72.5 -24.5t37.5 -59.5q0 -10 -6 -20l-311 -834l-39 -102q-10 -29 -41 -98.5t-51.5 -100.5t-57 -81t-71.5 -72.5t-83 -41t-102 -18.5q-80 0 -79 76q0 74 49 74q92 0 179 103t118 265 l-340 830q-8 12 -8 22zM180 1264q0 39 31 53l213 115q20 10 35 10q18 0 35 -10l213 -113q33 -18 32 -57q0 -23 -13 -40.5t-34 -17.5q-4 0 -12 2q-4 4 -8 4l-213 115l-213 -115q-8 -6 -19 -6q-18 0 -32.5 18.5t-14.5 41.5z"/>
<glyph unicode="Ÿ" horiz-adv-x="1116" d="M35 1425q0 31 33.5 51.5t68.5 20.5q37 0 62 -45l360 -702l359 702q25 45 61.5 45t69 -20.5t32.5 -51.5q0 -16 -8 -34l-424 -791q-4 -6 -4 -20v-519q0 -29 -25.5 -45t-60.5 -16t-60.5 16.5t-25.5 44.5v519q0 10 -6 20l-424 791q-8 18 -8 34zM342 1804q0 35 24.5 59.5 t59.5 24.5t58.5 -24.5t23.5 -59.5t-24.5 -60.5t-57.5 -25.5q-35 0 -59.5 25.5t-24.5 60.5zM610 1804q0 35 23.5 59.5t58.5 24.5t58.5 -24.5t23.5 -59.5t-23.5 -60.5t-58.5 -25.5t-58.5 25.5t-23.5 60.5z"/>
<glyph unicode="Ź" horiz-adv-x="1013" d="M43 55q0 27 16 60l662 1226h-590q-29 0 -44 22.5t-15 55.5t15 55.5t44 22.5h754q59 0 59 -51q0 -29 -20 -66l-660 -1224h647q27 0 44.5 -23.5t17.5 -54.5t-17.5 -54.5t-44.5 -23.5h-809q-59 0 -59 55zM350 1780q0 31 27 45l239 127q12 4 21 4q25 0 41 -21.5t16 -48.5 q0 -35 -28 -49l-232 -119q-16 -8 -22 -8q-25 0 -43.5 21.5t-18.5 48.5z"/>
<glyph unicode="ź" horiz-adv-x="841" d="M47 63q0 33 27 68l473 694h-424q-23 0 -40 21.5t-17 50.5q0 31 16 52.5t41 21.5h586q25 0 43 -18.5t18 -47.5q0 -35 -25 -65l-475 -695h469q23 0 40.5 -21.5t17.5 -52t-16.5 -51t-41.5 -20.5h-628q-31 0 -47.5 19t-16.5 44zM281 1266q0 31 26 45l240 127q12 4 20 4 q25 0 41.5 -21.5t16.5 -48.5q0 -35 -29 -49l-231 -119q-16 -8 -23 -8q-25 0 -43 21.5t-18 48.5z"/>
<glyph unicode="Ż" horiz-adv-x="1013" d="M43 55q0 27 16 60l662 1226h-590q-29 0 -44 22.5t-15 55.5t15 55.5t44 22.5h754q59 0 59 -51q0 -29 -20 -66l-660 -1224h647q27 0 44.5 -23.5t17.5 -54.5t-17.5 -54.5t-44.5 -23.5h-809q-59 0 -59 55zM424 1804q0 35 24.5 59.5t59.5 24.5t58.5 -24.5t23.5 -59.5 t-24.5 -60.5t-57.5 -25.5q-35 0 -59.5 25.5t-24.5 60.5z"/>
<glyph unicode="ż" horiz-adv-x="841" d="M47 63q0 33 27 68l473 694h-424q-23 0 -40 21.5t-17 50.5q0 31 16 52.5t41 21.5h586q25 0 43 -18.5t18 -47.5q0 -35 -25 -65l-475 -695h469q23 0 40.5 -21.5t17.5 -52t-16.5 -51t-41.5 -20.5h-628q-31 0 -47.5 19t-16.5 44zM334 1290q0 35 24.5 59.5t59.5 24.5 t58.5 -24.5t23.5 -59.5t-24.5 -60.5t-57.5 -25.5q-35 0 -59.5 25.5t-24.5 60.5z"/>
<glyph unicode="Ž" horiz-adv-x="1013" d="M43 55q0 27 16 60l662 1226h-590q-29 0 -44 22.5t-15 55.5t15 55.5t44 22.5h754q59 0 59 -51q0 -29 -20 -66l-660 -1224h647q27 0 44.5 -23.5t17.5 -54.5t-17.5 -54.5t-44.5 -23.5h-809q-59 0 -59 55zM221 1956q0 20 12.5 37.5t30.5 17.5q16 0 29 -12l205 -172l207 172 q10 12 28.5 12t30.5 -17.5t12 -37.5q0 -35 -31 -55l-206 -170q-23 -18 -41 -19q-20 0 -39 19l-209 170q-29 20 -29 55z"/>
<glyph unicode="ž" horiz-adv-x="841" d="M47 63q0 33 27 68l473 694h-424q-23 0 -40 21.5t-17 50.5q0 31 16 52.5t41 21.5h586q25 0 43 -18.5t18 -47.5q0 -35 -25 -65l-475 -695h469q23 0 40.5 -21.5t17.5 -52t-16.5 -51t-41.5 -20.5h-628q-31 0 -47.5 19t-16.5 44zM139 1442q0 20 12.5 37.5t30.5 17.5 q16 0 29 -12l205 -172l207 172q10 12 28.5 12t30.5 -17.5t12 -37.5q0 -35 -30 -56l-207 -169q-23 -18 -41 -19q-20 0 -39 19l-209 169q-29 21 -29 56z"/>
<glyph unicode="ƒ" horiz-adv-x="731" d="M-152 -205q0 35 19.5 60.5t48.5 25.5h43q104 0 139 250l146 1053q20 160 148 274.5t286 114.5h59q25 0 40.5 -21.5t15.5 -52.5q0 -35 -19.5 -57.5t-46.5 -22.5h-55q-98 0 -170 -68.5t-88 -166.5l-45 -316h282q23 0 37 -18.5t14 -44.5q0 -29 -16 -49.5t-41 -20.5h-295 l-84 -604q-27 -182 -102.5 -297t-212.5 -115h-45q-27 0 -42.5 22.5t-15.5 53.5z"/>
<glyph unicode="Ǽ" horiz-adv-x="1505" d="M139 72v979q0 231 119 338.5t315 107.5h828q29 0 44 -22.5t15 -53.5q0 -35 -15 -57.5t-44 -22.5h-477v-520h286q27 0 43.5 -21.5t16.5 -51.5q0 -27 -15.5 -48.5t-44.5 -21.5h-286v-522h477q29 0 44 -22.5t15 -57.5q0 -31 -15 -53.5t-44 -22.5h-572q-31 0 -54 16.5 t-23 44.5v617h-449v-606q0 -37 -16.5 -54.5t-69.5 -17.5q-78 0 -78 72zM303 821h449v520h-179q-129 0 -199.5 -72.5t-70.5 -217.5v-230zM657 1776q0 31 27 45l240 127q12 4 20 4q25 0 41 -21.5t16 -48.5q0 -35 -28 -49l-232 -119q-16 -8 -22 -8q-25 0 -43.5 21.5t-18.5 48.5 z"/>
<glyph unicode="ǽ" horiz-adv-x="1501" d="M57 254q0 162 122 224.5t353 62.5h99v45q0 104 -55.5 179t-172.5 75q-82 0 -148.5 -31t-72.5 -31q-27 0 -45 28t-18 60q0 45 94 81t199 36q221 0 315 -182q53 82 135 132t178 50q156 0 276 -103.5t120 -291.5q0 -94 -41 -123t-142 -29h-446v-61q0 -113 80 -180.5 t207 -67.5q88 0 162.5 40t86.5 40q27 0 47.5 -25.5t20.5 -52.5q0 -51 -105.5 -98t-230.5 -47q-117 0 -215 54t-153 150q-63 -100 -158.5 -152t-194.5 -52q-127 0 -212 69.5t-85 200.5zM229 270q0 -72 43 -110.5t113 -38.5q94 0 170 68.5t76 140.5v106h-70q-78 0 -129 -5 t-102 -21.5t-76 -51.5t-25 -88zM590 1266q0 31 26 45l240 127q12 4 21 4q25 0 41 -21.5t16 -48.5q0 -35 -29 -49l-231 -119q-16 -8 -23 -8q-25 0 -43 21.5t-18 48.5zM807 551h375q57 0 74.5 13.5t17.5 49.5q0 96 -67.5 165t-168.5 69q-96 0 -163.5 -64.5t-67.5 -158.5v-74z "/>
<glyph unicode="Ǿ" horiz-adv-x="1144" d="M127 0q0 18 6 27l66 131q-68 106 -68 276v617q0 231 120 338.5t320 107.5q158 0 271 -70l59 119q16 31 49 31q27 0 49.5 -19.5t22.5 -48.5q0 -14 -8 -28l-74 -148q74 -106 74 -282v-617q0 -231 -121 -338.5t-322 -107.5q-170 0 -276 71l-45 -88q-14 -33 -57 -32 q-29 0 -47.5 18t-18.5 43zM303 434q0 -27 4 -63l457 905q-70 66 -193 65q-268 0 -268 -290v-617zM373 215q66 -72 198 -72q129 0 200 73t71 218v617q0 41 -6 77zM420 1780q0 31 26 45l240 127q12 4 21 4q25 0 41 -21.5t16 -48.5q0 -35 -29 -49l-231 -119q-16 -8 -23 -8 q-25 0 -43 21.5t-18 48.5z"/>
<glyph unicode="ǿ" horiz-adv-x="976" d="M84 381v209q0 158 120 275.5t283 117.5q111 0 209 -59l60 98q12 20 35 20q18 0 33.5 -14t15.5 -35q0 -14 -11 -30l-59 -95q123 -117 123 -278v-209q0 -156 -122 -276.5t-284 -120.5q-119 0 -219 67l-59 -96q-12 -20 -35 -21q-16 0 -30.5 12.5t-14.5 30.5q0 10 8 27 l64 102q-117 121 -117 275zM254 381q0 -68 35 -127l325 534q-61 41 -127 41q-96 0 -164.5 -73.5t-68.5 -165.5v-209zM350 184q63 -47 137 -47q96 0 166 75t70 169v209q0 68 -43 131zM354 1266q0 31 27 45l240 127q12 4 20 4q25 0 41 -21.5t16 -48.5q0 -35 -28 -49l-232 -119 q-16 -8 -22 -8q-25 0 -43.5 21.5t-18.5 48.5z"/>
<glyph unicode="Ș" horiz-adv-x="1028" d="M68 215q0 33 23.5 63.5t51.5 30.5q18 0 47 -25.5t60 -57t96.5 -57.5t147.5 -26q133 0 208.5 64.5t75.5 189.5q0 113 -69.5 183.5t-168 107.5t-197.5 79t-169 129t-70 224q0 106 41 185t110 119t142.5 58.5t157.5 18.5q127 0 242.5 -35.5t115.5 -99.5q0 -29 -20.5 -61.5 t-52.5 -32.5q-8 0 -94.5 39t-190.5 39q-125 0 -202 -51.5t-77 -161.5q0 -94 70 -152.5t169 -93.5t197.5 -80t168 -144.5t69.5 -252.5q0 -213 -122.5 -321.5t-325.5 -108.5q-182 0 -308 77.5t-126 153.5zM362 -274q0 31 27 45l240 127q16 4 20 4q25 0 42.5 -21.5t17.5 -48.5 q0 -33 -29 -49l-231 -121q-12 -6 -25 -6q-25 0 -43.5 21.5t-18.5 48.5z"/>
<glyph unicode="ș" horiz-adv-x="802" d="M61 139q0 27 17.5 52.5t42.5 25.5q16 0 47 -24.5t88 -48t135 -23.5q102 0 148.5 37t46.5 92q0 68 -51.5 107.5t-125 60t-147.5 45t-125 82t-51 151.5q0 117 83 202t253 85q109 0 199 -34t90 -77q0 -25 -19.5 -55.5t-48.5 -30.5q-8 0 -78.5 30t-140.5 30q-94 0 -140 -44 t-46 -100q0 -57 51 -89.5t125.5 -51t148.5 -45.5t125 -91.5t51 -166.5q0 -127 -90 -200.5t-252 -73.5q-139 0 -237.5 50t-98.5 105zM233 -274q0 31 27 45l240 127q16 4 20 4q25 0 42.5 -21.5t17.5 -48.5q0 -33 -29 -49l-232 -121q-12 -6 -24 -6q-25 0 -43.5 21.5t-18.5 48.5 z"/>
<glyph unicode="Ẁ" horiz-adv-x="1665" d="M35 1427q0 29 33.5 49.5t70.5 20.5q51 0 64 -39l346 -1216l194 749q14 53 91 53q72 0 86 -53l196 -749l344 1216q12 39 66 39q37 0 69.5 -20.5t32.5 -49.5q0 -12 -2 -18l-403 -1362q-18 -59 -107 -59q-92 0 -106 59l-176 676l-179 -676q-16 -59 -104 -59t-107 59 l-405 1362q-4 12 -4 18zM643 1886q0 27 16.5 48.5t40.5 21.5q8 0 21 -4l240 -127q27 -14 26 -45q0 -27 -18.5 -48.5t-42.5 -21.5q-6 0 -23 8l-231 119q-29 14 -29 49z"/>
<glyph unicode="ẁ" horiz-adv-x="1382" d="M29 901q0 31 33.5 52.5t70.5 21.5q43 0 55 -33l248 -688l193 620q14 41 63 41q51 0 66 -41l188 -626l250 694q10 33 53 33q37 0 72 -21.5t35 -52.5q0 -16 -8 -33l-320 -850q-14 -37 -67 -36q-55 0 -70 36l-199 603l-194 -596q-14 -43 -74 -43q-53 0 -70 43l-317 843 q-8 25 -8 33zM494 1372q0 27 16 48.5t41 21.5q8 0 20 -4l240 -127q27 -12 27 -45q0 -27 -18.5 -48.5t-43.5 -21.5q-6 0 -22 8l-232 119q-28 14 -28 49z"/>
<glyph unicode="Ẃ" horiz-adv-x="1665" d="M35 1427q0 29 33.5 49.5t70.5 20.5q51 0 64 -39l346 -1216l194 749q14 53 91 53q72 0 86 -53l196 -749l344 1216q12 39 66 39q37 0 69.5 -20.5t32.5 -49.5q0 -12 -2 -18l-403 -1362q-18 -59 -107 -59q-92 0 -106 59l-176 676l-179 -676q-16 -59 -104 -59t-107 59 l-405 1362q-4 12 -4 18zM676 1780q0 31 26 45l240 127q12 4 21 4q25 0 41 -21.5t16 -48.5q0 -35 -29 -49l-231 -119q-16 -8 -23 -8q-25 0 -43 21.5t-18 48.5z"/>
<glyph unicode="ẃ" horiz-adv-x="1382" d="M29 901q0 31 33.5 52.5t70.5 21.5q43 0 55 -33l248 -688l193 620q14 41 63 41q51 0 66 -41l188 -626l250 694q10 33 53 33q37 0 72 -21.5t35 -52.5q0 -16 -8 -33l-320 -850q-14 -37 -67 -36q-55 0 -70 36l-199 603l-194 -596q-14 -43 -74 -43q-53 0 -70 43l-317 843 q-8 25 -8 33zM543 1266q0 31 26 45l240 127q12 4 20 4q25 0 41.5 -21.5t16.5 -48.5q0 -35 -29 -49l-231 -119q-16 -8 -23 -8q-25 0 -43 21.5t-18 48.5z"/>
<glyph unicode="Ẅ" horiz-adv-x="1665" d="M35 1427q0 29 33.5 49.5t70.5 20.5q51 0 64 -39l346 -1216l194 749q14 53 91 53q72 0 86 -53l196 -749l344 1216q12 39 66 39q37 0 69.5 -20.5t32.5 -49.5q0 -12 -2 -18l-403 -1362q-18 -59 -107 -59q-92 0 -106 59l-176 676l-179 -676q-16 -59 -104 -59t-107 59 l-405 1362q-4 12 -4 18zM616 1804q0 35 25 59.5t59.5 24.5t58 -24.5t23.5 -59.5t-24.5 -60.5t-57.5 -25.5q-35 0 -59.5 25.5t-24.5 60.5zM885 1804q0 35 23.5 59.5t58 24.5t58.5 -24.5t24 -59.5t-24 -60.5t-58.5 -25.5t-58 25.5t-23.5 60.5z"/>
<glyph unicode="ẅ" horiz-adv-x="1382" d="M29 901q0 31 33.5 52.5t70.5 21.5q43 0 55 -33l248 -688l193 620q14 41 63 41q51 0 66 -41l188 -626l250 694q10 33 53 33q37 0 72 -21.5t35 -52.5q0 -16 -8 -33l-320 -850q-14 -37 -67 -36q-55 0 -70 36l-199 603l-194 -596q-14 -43 -74 -43q-53 0 -70 43l-317 843 q-8 25 -8 33zM475 1290q0 35 24.5 59.5t59.5 24.5t58.5 -24.5t23.5 -59.5t-24.5 -60.5t-57.5 -25.5q-35 0 -59.5 25.5t-24.5 60.5zM743 1290q0 35 24 59.5t58.5 24.5t58 -24.5t23.5 -59.5t-23.5 -60.5t-58 -25.5t-58.5 25.5t-24 60.5z"/>
<glyph unicode="Ỳ" horiz-adv-x="1116" d="M35 1425q0 31 33.5 51.5t68.5 20.5q37 0 62 -45l360 -702l359 702q25 45 61.5 45t69 -20.5t32.5 -51.5q0 -16 -8 -34l-424 -791q-4 -6 -4 -20v-519q0 -29 -25.5 -45t-60.5 -16t-60.5 16.5t-25.5 44.5v519q0 10 -6 20l-424 791q-8 18 -8 34zM371 1886q0 27 16 48.5 t41 21.5q8 0 21 -4l239 -127q27 -14 27 -45q0 -27 -18.5 -48.5t-43.5 -21.5q-6 0 -22 8l-232 119q-28 14 -28 49z"/>
<glyph unicode="ỳ" horiz-adv-x="894" d="M25 901q0 33 36.5 57.5t73.5 24.5q43 0 55 -35l271 -712l244 712q14 35 53 35q35 0 72.5 -24.5t37.5 -59.5q0 -10 -6 -20l-311 -834l-39 -102q-10 -29 -41 -98.5t-51.5 -100.5t-57 -81t-71.5 -72.5t-83 -41t-102 -18.5q-80 0 -79 76q0 74 49 74q92 0 179 103t118 265 l-340 830q-8 12 -8 22zM250 1372q0 27 16.5 48.5t40.5 21.5q8 0 21 -4l239 -127q27 -12 27 -45q0 -27 -18.5 -48.5t-43.5 -21.5q-6 0 -22 8l-231 119q-29 14 -29 49z"/>
<glyph unicode=" " horiz-adv-x="1043"/>
<glyph unicode=" " horiz-adv-x="2087"/>
<glyph unicode=" " horiz-adv-x="1043"/>
<glyph unicode=" " horiz-adv-x="2087"/>
<glyph unicode=" " horiz-adv-x="695"/>
<glyph unicode=" " horiz-adv-x="521"/>
<glyph unicode=" " horiz-adv-x="347"/>
<glyph unicode=" " horiz-adv-x="347"/>
<glyph unicode=" " horiz-adv-x="260"/>
<glyph unicode=" " horiz-adv-x="417"/>
<glyph unicode=" " horiz-adv-x="115"/>
<glyph unicode="‐" horiz-adv-x="845" d="M96 492q0 31 16.5 52t43.5 21h532q25 0 43.5 -21.5t18.5 -52t-18.5 -51t-43.5 -20.5h-532q-60 0 -60 72z"/>
<glyph unicode="‑" horiz-adv-x="845" d="M96 492q0 31 16.5 52t43.5 21h532q25 0 43.5 -21.5t18.5 -52t-18.5 -51t-43.5 -20.5h-532q-60 0 -60 72z"/>
<glyph unicode="‒" horiz-adv-x="845" d="M96 492q0 31 16.5 52t43.5 21h532q25 0 43.5 -21.5t18.5 -52t-18.5 -51t-43.5 -20.5h-532q-60 0 -60 72z"/>
<glyph unicode="–" horiz-adv-x="968" d="M96 492q0 31 16.5 52t43.5 21h655q25 0 43 -21.5t18 -52t-18 -51t-43 -20.5h-655q-60 0 -60 72z"/>
<glyph unicode="—" horiz-adv-x="1542" d="M96 492q0 31 16.5 52t43.5 21h1228q25 0 43.5 -21.5t18.5 -52t-18.5 -51t-43.5 -20.5h-1228q-60 0 -60 72z"/>
<glyph unicode="‘" horiz-adv-x="342" d="M61 1241q0 43 93 250q12 27 41 27q23 0 42 -14.5t19 -37.5q0 -12 -4 -20l-43 -107q66 -27 65 -98q0 -45 -30.5 -75.5t-75.5 -30.5q-43 0 -75 30.5t-32 75.5z"/>
<glyph unicode="’" horiz-adv-x="337" d="M70 1411q0 43 30.5 75t75.5 32q43 0 75 -32t32 -75t-93 -250q-12 -27 -40 -26q-23 0 -42.5 13t-19.5 36q0 14 4 20l43 107q-65 26 -65 100z"/>
<glyph unicode="‚" horiz-adv-x="360" d="M74 94q0 45 30.5 77t75.5 32q43 0 74 -32t31 -75q0 -47 -90 -250q-12 -29 -43 -28q-23 0 -41.5 14t-18.5 37q0 12 4 20l43 107q-65 26 -65 98z"/>
<glyph unicode="“" horiz-adv-x="671" d="M61 1241q0 43 93 250q12 27 41 27q23 0 42 -14.5t19 -37.5q0 -12 -4 -20l-43 -107q66 -27 65 -98q0 -45 -30.5 -75.5t-75.5 -30.5q-43 0 -75 30.5t-32 75.5zM391 1241q0 47 90 250q14 27 43 27q23 0 41.5 -14.5t18.5 -37.5q0 -12 -4 -20l-43 -107q68 -27 67 -98 q0 -45 -30.5 -75.5t-75.5 -30.5t-76 30.5t-31 75.5z"/>
<glyph unicode="”" horiz-adv-x="665" d="M70 1411q0 43 30.5 75t75.5 32q43 0 75 -32t32 -75q0 -49 -93 -250q-12 -27 -40 -26q-23 0 -42.5 13t-19.5 36q0 12 6 20l41 107q-65 26 -65 100zM399 1411q0 43 31 75t76 32q43 0 73.5 -32t30.5 -75q0 -47 -90 -250q-12 -27 -43 -26q-23 0 -41 13t-18 36q0 14 4 20 l43 107q-66 26 -66 100z"/>
<glyph unicode="„" horiz-adv-x="690" d="M74 94q0 45 30.5 77t75.5 32q43 0 74 -32t31 -75q0 -47 -90 -250q-12 -29 -43 -28q-23 0 -41.5 14t-18.5 37q0 12 4 20l43 107q-65 26 -65 98zM401 94q0 45 31 77t76 32q43 0 74.5 -32t31.5 -75t-92 -250q-12 -29 -41 -28q-23 0 -42 14t-19 37q0 4 4 20l43 107 q-66 26 -66 98z"/>
<glyph unicode="†" horiz-adv-x="864" d="M45 930q0 29 16.5 49t42.5 22l242 -12v449q0 23 25.5 41t60.5 18q33 0 59.5 -18.5t26.5 -40.5v-449l242 12q25 -2 43 -22.5t18 -49t-18.5 -48t-42.5 -21.5l-242 12v-847q0 -27 -26.5 -47.5t-59.5 -20.5q-35 0 -60.5 20.5t-25.5 47.5v847l-242 -12q-59 4 -59 70z"/>
<glyph unicode="‡" horiz-adv-x="903" d="M63 494q0 29 16.5 48t43.5 21l242 -12v321l-242 -12q-59 4 -60 70q0 29 16.5 49t43.5 22l242 -12v449q0 23 25.5 41t60.5 18q33 0 59.5 -18.5t26.5 -40.5v-449l241 12q25 -2 43.5 -22.5t18.5 -49t-18.5 -48t-43.5 -21.5l-241 12v-321l241 12q25 -2 43.5 -21.5t18.5 -48 t-18.5 -48t-43.5 -21.5l-241 12v-411q0 -27 -27 -47.5t-59 -20.5q-35 0 -60.5 20.5t-25.5 47.5v411l-242 -12q-60 4 -60 70z"/>
<glyph unicode="•" horiz-adv-x="651" d="M92 614.5q0 90.5 70.5 158t165.5 67.5q92 0 161.5 -67.5t69.5 -158t-69.5 -159t-161.5 -68.5q-94 0 -165 68.5t-71 159z"/>
<glyph unicode="…" horiz-adv-x="1116" d="M76 94q0 45 30.5 77t75.5 32q43 0 74 -32t31 -77q0 -43 -31 -74.5t-74 -31.5q-45 0 -75.5 31.5t-30.5 74.5zM455 94q0 45 30.5 77t75.5 32q43 0 74 -32t31 -77q0 -43 -31 -74.5t-74 -31.5q-45 0 -75.5 31.5t-30.5 74.5zM831 94q0 45 31 77t76 32q43 0 73.5 -32t30.5 -77 q0 -43 -30.5 -74.5t-73.5 -31.5q-45 0 -76 31.5t-31 74.5z"/>
<glyph unicode=" " horiz-adv-x="417"/>
<glyph unicode="‰" horiz-adv-x="2213" d="M74 948v307q0 125 71.5 183.5t192.5 58.5q119 0 191.5 -58.5t72.5 -183.5v-307q0 -125 -72.5 -183t-191.5 -58q-121 0 -192.5 58t-71.5 183zM197 948q0 -133 141 -133t141 133v307q0 133 -141 133.5t-141 -133.5v-307zM342 0q0 14 6 27l768 1519q14 31 51 31 q27 0 48.5 -19.5t21.5 -48.5q0 -14 -6 -28l-766 -1510q-14 -33 -57 -32q-27 0 -46.5 18t-19.5 43zM965 236v307q0 125 71.5 183t192.5 58q119 0 191.5 -58t72.5 -183v-307q0 -125 -72.5 -183.5t-191.5 -58.5q-121 0 -192.5 58.5t-71.5 183.5zM1087 236q0 -133 141.5 -133.5 t141.5 133.5v307q0 133 -141.5 133t-141.5 -133v-307zM1618 236v307q0 125 71.5 183t192.5 58q119 0 191.5 -58t72.5 -183v-307q0 -125 -72.5 -183.5t-191.5 -58.5q-121 0 -192.5 58.5t-71.5 183.5zM1741 236q0 -133 141 -133.5t141 133.5v307q0 133 -141 133t-141 -133 v-307z"/>
<glyph unicode="‹" horiz-adv-x="503" d="M66 567.5q0 16.5 28 69.5l172 321q16 27 55 27t70 -28.5t31 -57.5q0 -10 -6 -22l-166 -310l166 -309q6 -8 6 -22q0 -29 -32 -56.5t-70.5 -27.5t-53.5 26l-172 320q-28 53 -28 69.5z"/>
<glyph unicode="›" horiz-adv-x="503" d="M82 236q0 14 6 22l166 309l-166 310q-6 12 -6 22q0 29 30.5 57.5t69.5 28.5q43 0 56 -27l172 -321q29 -53 28.5 -69.5t-28.5 -69.5l-172 -320q-14 -27 -53.5 -26.5t-71 28t-31.5 56.5z"/>
<glyph unicode="⁄" horiz-adv-x="342" d="M-276 0q0 14 6 27l768 1519q14 31 51 31q27 0 48 -19.5t21 -48.5q0 -14 -6 -28l-766 -1510q-14 -33 -57 -32q-27 0 -46 18t-19 43z"/>
<glyph unicode=" " horiz-adv-x="521"/>
<glyph unicode="€" horiz-adv-x="1210" d="M59 565.5q0 28.5 16.5 48t43.5 19.5h119v180h-119q-27 0 -43.5 17.5t-16.5 46t16.5 48t43.5 19.5h119v107q0 231 119.5 338.5t318 107.5t321.5 -101.5t123 -265.5q0 -45 -20.5 -63t-65.5 -18q-86 0 -86 57q0 102 -69.5 168.5t-198.5 66.5q-270 0 -270 -290v-107h303 q25 0 43 -19.5t18 -45.5q0 -29 -18.5 -47.5t-42.5 -18.5h-303v-180h303q23 0 42 -20.5t19 -47t-18.5 -45t-42.5 -18.5h-303v-82q0 -123 67.5 -200t204.5 -77q127 0 196.5 66.5t69.5 177.5q0 57 86 57q45 0 65.5 -18t20.5 -66q0 -166 -123 -269t-321 -103 q-203 0 -320.5 111.5t-117.5 320.5v82h-119q-27 0 -43.5 17.5t-16.5 46z"/>
<glyph unicode="◼" horiz-adv-x="983" d="M0 0v983h983v-983h-983z"/>
</font>
</defs>
</svg>
